ISO-10303-21;
HEADER;
/* Generated by software containing ST-Developer
 * from STEP Tools, Inc. (www.steptools.com) 
 */

FILE_DESCRIPTION(
/* description */ (''),
/* implementation_level */ '2;1');

FILE_NAME(
/* name */ 'Good morning 25 dc motor.step',
/* time_stamp */ '2025-09-22T21:41:37+07:00',
/* author */ (''),
/* organization */ (''),
/* preprocessor_version */ 'ST-DEVELOPER v20.1',
/* originating_system */ 'Autodesk Translation Framework v14.10.0.0',
/* authorisation */ '');

FILE_SCHEMA (('AUTOMOTIVE_DESIGN { 1 0 10303 214 3 1 1 }'));
ENDSEC;

DATA;
#10=MECHANICAL_DESIGN_GEOMETRIC_PRESENTATION_REPRESENTATION('',(#21,#22,
#23,#24,#25,#26),#1769);
#11=SHAPE_REPRESENTATION_RELATIONSHIP('SRR','None',#1776,#12);
#12=ADVANCED_BREP_SHAPE_REPRESENTATION('',(#27,#28,#29,#30,#31),#1768);
#13=B_SPLINE_CURVE_WITH_KNOTS('',3,(#1514,#1515,#1516,#1517,#1518,#1519,
#1520,#1521,#1522,#1523),.UNSPECIFIED.,.F.,.F.,(4,2,2,2,4),(0.,0.0376560508459712,
0.0753121016919424,0.11516986332277,0.155027624953599),.UNSPECIFIED.);
#14=B_SPLINE_CURVE_WITH_KNOTS('',3,(#1525,#1526,#1527,#1528,#1529,#1530,
#1531,#1532,#1533,#1534),.UNSPECIFIED.,.F.,.F.,(4,2,2,2,4),(-0.155027624953599,
-0.11516986332277,-0.0753121016919424,-0.0376560508459712,0.),
 .UNSPECIFIED.);
#15=B_SPLINE_CURVE_WITH_KNOTS('',3,(#1538,#1539,#1540,#1541,#1542,#1543,
#1544,#1545,#1546,#1547),.UNSPECIFIED.,.F.,.F.,(4,2,2,2,4),(0.153249256806119,
0.193107018436947,0.232964780067775,0.270620830913746,0.308276881759718),
 .UNSPECIFIED.);
#16=B_SPLINE_CURVE_WITH_KNOTS('',3,(#1550,#1551,#1552,#1553,#1554,#1555,
#1556,#1557,#1558,#1559),.UNSPECIFIED.,.F.,.F.,(4,2,2,2,4),(0.308276881759718,
0.345932932605689,0.38358898345166,0.423446745082488,0.463304506713316),
 .UNSPECIFIED.);
#17=B_SPLINE_CURVE_WITH_KNOTS('',3,(#1567,#1568,#1569,#1570,#1571,#1572,
#1573,#1574,#1575,#1576),.UNSPECIFIED.,.F.,.F.,(4,2,2,2,4),(-0.155027624953599,
-0.115169863322771,-0.0753121016919428,-0.0376560508459713,0.),
 .UNSPECIFIED.);
#18=B_SPLINE_CURVE_WITH_KNOTS('',3,(#1577,#1578,#1579,#1580,#1581,#1582,
#1583,#1584,#1585,#1586),.UNSPECIFIED.,.F.,.F.,(4,2,2,2,4),(0.,0.0376560508459714,
0.0753121016919428,0.115169863322771,0.155027624953599),.UNSPECIFIED.);
#19=B_SPLINE_CURVE_WITH_KNOTS('',3,(#1594,#1595,#1596,#1597,#1598,#1599,
#1600,#1601,#1602,#1603),.UNSPECIFIED.,.F.,.F.,(4,2,2,2,4),(-0.155027624953599,
-0.115169863322771,-0.0753121016919428,-0.0376560508459715,0.),
 .UNSPECIFIED.);
#20=B_SPLINE_CURVE_WITH_KNOTS('',3,(#1604,#1605,#1606,#1607,#1608,#1609,
#1610,#1611,#1612,#1613),.UNSPECIFIED.,.F.,.F.,(4,2,2,2,4),(0.,0.0376560508459714,
0.0753121016919428,0.115169863322771,0.155027624953599),.UNSPECIFIED.);
#21=STYLED_ITEM('',(#1785),#27);
#22=STYLED_ITEM('',(#1786),#943);
#23=STYLED_ITEM('',(#1785),#28);
#24=STYLED_ITEM('',(#1787),#29);
#25=STYLED_ITEM('',(#1788),#30);
#26=STYLED_ITEM('',(#1788),#31);
#27=MANIFOLD_SOLID_BREP('Body1',#977);
#28=MANIFOLD_SOLID_BREP('Body2',#978);
#29=MANIFOLD_SOLID_BREP('Body4',#979);
#30=MANIFOLD_SOLID_BREP('Body5',#980);
#31=MANIFOLD_SOLID_BREP('Body6',#981);
#32=FACE_BOUND('',#193,.T.);
#33=FACE_BOUND('',#196,.T.);
#34=FACE_BOUND('',#206,.T.);
#35=FACE_BOUND('',#207,.T.);
#36=FACE_BOUND('',#208,.T.);
#37=FACE_BOUND('',#209,.T.);
#38=FACE_BOUND('',#210,.T.);
#39=FACE_BOUND('',#214,.T.);
#40=FACE_BOUND('',#227,.T.);
#41=FACE_BOUND('',#228,.T.);
#42=FACE_BOUND('',#236,.T.);
#43=FACE_BOUND('',#246,.T.);
#44=FACE_BOUND('',#248,.T.);
#45=CYLINDRICAL_SURFACE('',#1001,2.15);
#46=CYLINDRICAL_SURFACE('',#1006,2.15);
#47=CYLINDRICAL_SURFACE('',#1011,1.25);
#48=CYLINDRICAL_SURFACE('',#1014,1.25);
#49=CYLINDRICAL_SURFACE('',#1017,1.25);
#50=CYLINDRICAL_SURFACE('',#1021,1.25);
#51=CYLINDRICAL_SURFACE('',#1028,12.3);
#52=CYLINDRICAL_SURFACE('',#1034,3.45);
#53=CYLINDRICAL_SURFACE('',#1035,1.95);
#54=CYLINDRICAL_SURFACE('',#1044,1.);
#55=CYLINDRICAL_SURFACE('',#1045,1.);
#56=CYLINDRICAL_SURFACE('',#1047,1.);
#57=CYLINDRICAL_SURFACE('',#1049,1.);
#58=CYLINDRICAL_SURFACE('',#1050,12.15);
#59=CYLINDRICAL_SURFACE('',#1055,12.15);
#60=CYLINDRICAL_SURFACE('',#1059,1.5);
#61=CYLINDRICAL_SURFACE('',#1061,4.);
#62=CYLINDRICAL_SURFACE('',#1065,0.999999999999998);
#63=CYLINDRICAL_SURFACE('',#1068,8.9);
#64=CYLINDRICAL_SURFACE('',#1071,0.999999999999996);
#65=CYLINDRICAL_SURFACE('',#1075,0.999999999999996);
#66=CYLINDRICAL_SURFACE('',#1078,8.89999999999999);
#67=CYLINDRICAL_SURFACE('',#1081,0.999999999999997);
#68=CYLINDRICAL_SURFACE('',#1087,1.);
#69=CYLINDRICAL_SURFACE('',#1093,1.);
#70=CYLINDRICAL_SURFACE('',#1099,1.);
#71=CYLINDRICAL_SURFACE('',#1105,1.);
#72=CIRCLE('',#997,1.95);
#73=CIRCLE('',#999,1.95);
#74=CIRCLE('',#1000,1.95);
#75=CIRCLE('',#1002,2.15);
#76=CIRCLE('',#1003,2.15);
#77=CIRCLE('',#1005,1.25);
#78=CIRCLE('',#1007,2.15);
#79=CIRCLE('',#1008,2.15);
#80=CIRCLE('',#1010,1.25);
#81=CIRCLE('',#1012,1.25);
#82=CIRCLE('',#1015,1.25);
#83=CIRCLE('',#1018,1.25);
#84=CIRCLE('',#1019,1.25);
#85=CIRCLE('',#1022,1.25);
#86=CIRCLE('',#1023,1.25);
#87=CIRCLE('',#1026,12.3);
#88=CIRCLE('',#1027,3.45);
#89=CIRCLE('',#1029,12.3);
#90=CIRCLE('',#1032,3.45);
#91=CIRCLE('',#1033,1.95);
#92=CIRCLE('',#1037,12.15);
#93=CIRCLE('',#1039,12.15);
#94=CIRCLE('',#1040,12.15);
#95=CIRCLE('',#1042,12.15);
#96=CIRCLE('',#1043,12.15);
#97=CIRCLE('',#1051,12.15);
#98=CIRCLE('',#1054,12.15);
#99=CIRCLE('',#1056,12.15);
#100=CIRCLE('',#1058,1.5);
#101=CIRCLE('',#1060,1.5);
#102=CIRCLE('',#1062,4.);
#103=CIRCLE('',#1063,4.);
#104=CIRCLE('',#1066,0.999999999999998);
#105=CIRCLE('',#1067,0.999999999999998);
#106=CIRCLE('',#1069,8.9);
#107=CIRCLE('',#1070,8.9);
#108=CIRCLE('',#1072,0.999999999999996);
#109=CIRCLE('',#1073,0.999999999999996);
#110=CIRCLE('',#1076,0.999999999999996);
#111=CIRCLE('',#1077,0.999999999999996);
#112=CIRCLE('',#1079,8.89999999999999);
#113=CIRCLE('',#1080,8.89999999999999);
#114=CIRCLE('',#1082,0.999999999999997);
#115=CIRCLE('',#1083,0.999999999999997);
#116=CIRCLE('',#1088,1.);
#117=CIRCLE('',#1089,1.);
#118=CIRCLE('',#1091,1.);
#119=CIRCLE('',#1094,1.);
#120=CIRCLE('',#1100,1.);
#121=CIRCLE('',#1101,1.);
#122=CIRCLE('',#1104,1.);
#123=CIRCLE('',#1106,1.);
#124=FACE_OUTER_BOUND('',#188,.T.);
#125=FACE_OUTER_BOUND('',#189,.T.);
#126=FACE_OUTER_BOUND('',#190,.T.);
#127=FACE_OUTER_BOUND('',#191,.T.);
#128=FACE_OUTER_BOUND('',#192,.T.);
#129=FACE_OUTER_BOUND('',#194,.T.);
#130=FACE_OUTER_BOUND('',#195,.T.);
#131=FACE_OUTER_BOUND('',#197,.T.);
#132=FACE_OUTER_BOUND('',#198,.T.);
#133=FACE_OUTER_BOUND('',#199,.T.);
#134=FACE_OUTER_BOUND('',#200,.T.);
#135=FACE_OUTER_BOUND('',#201,.T.);
#136=FACE_OUTER_BOUND('',#202,.T.);
#137=FACE_OUTER_BOUND('',#203,.T.);
#138=FACE_OUTER_BOUND('',#204,.T.);
#139=FACE_OUTER_BOUND('',#205,.T.);
#140=FACE_OUTER_BOUND('',#211,.T.);
#141=FACE_OUTER_BOUND('',#212,.T.);
#142=FACE_OUTER_BOUND('',#213,.T.);
#143=FACE_OUTER_BOUND('',#215,.T.);
#144=FACE_OUTER_BOUND('',#216,.T.);
#145=FACE_OUTER_BOUND('',#217,.T.);
#146=FACE_OUTER_BOUND('',#218,.T.);
#147=FACE_OUTER_BOUND('',#219,.T.);
#148=FACE_OUTER_BOUND('',#220,.T.);
#149=FACE_OUTER_BOUND('',#221,.T.);
#150=FACE_OUTER_BOUND('',#222,.T.);
#151=FACE_OUTER_BOUND('',#223,.T.);
#152=FACE_OUTER_BOUND('',#224,.T.);
#153=FACE_OUTER_BOUND('',#225,.T.);
#154=FACE_OUTER_BOUND('',#226,.T.);
#155=FACE_OUTER_BOUND('',#229,.T.);
#156=FACE_OUTER_BOUND('',#230,.T.);
#157=FACE_OUTER_BOUND('',#231,.T.);
#158=FACE_OUTER_BOUND('',#232,.T.);
#159=FACE_OUTER_BOUND('',#233,.T.);
#160=FACE_OUTER_BOUND('',#234,.T.);
#161=FACE_OUTER_BOUND('',#235,.T.);
#162=FACE_OUTER_BOUND('',#237,.T.);
#163=FACE_OUTER_BOUND('',#238,.T.);
#164=FACE_OUTER_BOUND('',#239,.T.);
#165=FACE_OUTER_BOUND('',#240,.T.);
#166=FACE_OUTER_BOUND('',#241,.T.);
#167=FACE_OUTER_BOUND('',#242,.T.);
#168=FACE_OUTER_BOUND('',#243,.T.);
#169=FACE_OUTER_BOUND('',#244,.T.);
#170=FACE_OUTER_BOUND('',#245,.T.);
#171=FACE_OUTER_BOUND('',#247,.T.);
#172=FACE_OUTER_BOUND('',#249,.T.);
#173=FACE_OUTER_BOUND('',#250,.T.);
#174=FACE_OUTER_BOUND('',#251,.T.);
#175=FACE_OUTER_BOUND('',#252,.T.);
#176=FACE_OUTER_BOUND('',#253,.T.);
#177=FACE_OUTER_BOUND('',#254,.T.);
#178=FACE_OUTER_BOUND('',#255,.T.);
#179=FACE_OUTER_BOUND('',#256,.T.);
#180=FACE_OUTER_BOUND('',#257,.T.);
#181=FACE_OUTER_BOUND('',#258,.T.);
#182=FACE_OUTER_BOUND('',#259,.T.);
#183=FACE_OUTER_BOUND('',#260,.T.);
#184=FACE_OUTER_BOUND('',#261,.T.);
#185=FACE_OUTER_BOUND('',#262,.T.);
#186=FACE_OUTER_BOUND('',#263,.T.);
#187=FACE_OUTER_BOUND('',#264,.T.);
#188=EDGE_LOOP('',(#618,#619,#620,#621));
#189=EDGE_LOOP('',(#622,#623));
#190=EDGE_LOOP('',(#624,#625,#626));
#191=EDGE_LOOP('',(#627,#628,#629,#630));
#192=EDGE_LOOP('',(#631));
#193=EDGE_LOOP('',(#632));
#194=EDGE_LOOP('',(#633,#634,#635,#636));
#195=EDGE_LOOP('',(#637));
#196=EDGE_LOOP('',(#638));
#197=EDGE_LOOP('',(#639,#640,#641,#642));
#198=EDGE_LOOP('',(#643));
#199=EDGE_LOOP('',(#644,#645,#646,#647));
#200=EDGE_LOOP('',(#648));
#201=EDGE_LOOP('',(#649,#650,#651,#652));
#202=EDGE_LOOP('',(#653));
#203=EDGE_LOOP('',(#654,#655,#656,#657));
#204=EDGE_LOOP('',(#658));
#205=EDGE_LOOP('',(#659));
#206=EDGE_LOOP('',(#660));
#207=EDGE_LOOP('',(#661));
#208=EDGE_LOOP('',(#662));
#209=EDGE_LOOP('',(#663));
#210=EDGE_LOOP('',(#664));
#211=EDGE_LOOP('',(#665,#666,#667,#668));
#212=EDGE_LOOP('',(#669));
#213=EDGE_LOOP('',(#670));
#214=EDGE_LOOP('',(#671));
#215=EDGE_LOOP('',(#672,#673,#674,#675));
#216=EDGE_LOOP('',(#676,#677,#678,#679,#680,#681,#682,#683));
#217=EDGE_LOOP('',(#684));
#218=EDGE_LOOP('',(#685,#686,#687,#688));
#219=EDGE_LOOP('',(#689,#690,#691,#692));
#220=EDGE_LOOP('',(#693,#694,#695,#696));
#221=EDGE_LOOP('',(#697,#698,#699,#700));
#222=EDGE_LOOP('',(#701,#702,#703,#704));
#223=EDGE_LOOP('',(#705,#706,#707,#708));
#224=EDGE_LOOP('',(#709,#710,#711,#712));
#225=EDGE_LOOP('',(#713,#714,#715,#716));
#226=EDGE_LOOP('',(#717,#718,#719,#720));
#227=EDGE_LOOP('',(#721,#722,#723,#724,#725,#726,#727,#728));
#228=EDGE_LOOP('',(#729,#730,#731,#732,#733,#734,#735,#736));
#229=EDGE_LOOP('',(#737));
#230=EDGE_LOOP('',(#738));
#231=EDGE_LOOP('',(#739,#740,#741,#742));
#232=EDGE_LOOP('',(#743));
#233=EDGE_LOOP('',(#744,#745,#746,#747));
#234=EDGE_LOOP('',(#748,#749,#750,#751));
#235=EDGE_LOOP('',(#752));
#236=EDGE_LOOP('',(#753));
#237=EDGE_LOOP('',(#754,#755,#756,#757));
#238=EDGE_LOOP('',(#758,#759,#760,#761));
#239=EDGE_LOOP('',(#762,#763,#764,#765));
#240=EDGE_LOOP('',(#766,#767,#768,#769));
#241=EDGE_LOOP('',(#770,#771,#772,#773));
#242=EDGE_LOOP('',(#774,#775,#776,#777));
#243=EDGE_LOOP('',(#778,#779,#780,#781));
#244=EDGE_LOOP('',(#782,#783,#784,#785));
#245=EDGE_LOOP('',(#786,#787,#788,#789,#790,#791,#792,#793));
#246=EDGE_LOOP('',(#794));
#247=EDGE_LOOP('',(#795));
#248=EDGE_LOOP('',(#796,#797,#798,#799,#800,#801,#802,#803));
#249=EDGE_LOOP('',(#804,#805,#806,#807));
#250=EDGE_LOOP('',(#808,#809,#810,#811,#812,#813));
#251=EDGE_LOOP('',(#814,#815,#816,#817));
#252=EDGE_LOOP('',(#818,#819,#820,#821));
#253=EDGE_LOOP('',(#822,#823,#824,#825));
#254=EDGE_LOOP('',(#826,#827,#828,#829,#830,#831));
#255=EDGE_LOOP('',(#832,#833,#834,#835));
#256=EDGE_LOOP('',(#836,#837,#838,#839));
#257=EDGE_LOOP('',(#840,#841,#842,#843));
#258=EDGE_LOOP('',(#844,#845,#846,#847));
#259=EDGE_LOOP('',(#848,#849,#850,#851,#852,#853));
#260=EDGE_LOOP('',(#854,#855,#856,#857));
#261=EDGE_LOOP('',(#858,#859,#860,#861,#862,#863));
#262=EDGE_LOOP('',(#864,#865,#866,#867));
#263=EDGE_LOOP('',(#868,#869,#870,#871));
#264=EDGE_LOOP('',(#872,#873,#874,#875));
#265=LINE('',#1418,#334);
#266=LINE('',#1420,#335);
#267=LINE('',#1422,#336);
#268=LINE('',#1423,#337);
#269=LINE('',#1434,#338);
#270=LINE('',#1443,#339);
#271=LINE('',#1450,#340);
#272=LINE('',#1455,#341);
#273=LINE('',#1462,#342);
#274=LINE('',#1469,#343);
#275=LINE('',#1479,#344);
#276=LINE('',#1488,#345);
#277=LINE('',#1490,#346);
#278=LINE('',#1497,#347);
#279=LINE('',#1501,#348);
#280=LINE('',#1506,#349);
#281=LINE('',#1510,#350);
#282=LINE('',#1535,#351);
#283=LINE('',#1549,#352);
#284=LINE('',#1563,#353);
#285=LINE('',#1564,#354);
#286=LINE('',#1565,#355);
#287=LINE('',#1590,#356);
#288=LINE('',#1591,#357);
#289=LINE('',#1592,#358);
#290=LINE('',#1617,#359);
#291=LINE('',#1625,#360);
#292=LINE('',#1631,#361);
#293=LINE('',#1637,#362);
#294=LINE('',#1645,#363);
#295=LINE('',#1648,#364);
#296=LINE('',#1654,#365);
#297=LINE('',#1660,#366);
#298=LINE('',#1663,#367);
#299=LINE('',#1665,#368);
#300=LINE('',#1666,#369);
#301=LINE('',#1672,#370);
#302=LINE('',#1678,#371);
#303=LINE('',#1684,#372);
#304=LINE('',#1686,#373);
#305=LINE('',#1687,#374);
#306=LINE('',#1695,#375);
#307=LINE('',#1698,#376);
#308=LINE('',#1701,#377);
#309=LINE('',#1705,#378);
#310=LINE('',#1707,#379);
#311=LINE('',#1708,#380);
#312=LINE('',#1711,#381);
#313=LINE('',#1712,#382);
#314=LINE('',#1716,#383);
#315=LINE('',#1719,#384);
#316=LINE('',#1720,#385);
#317=LINE('',#1723,#386);
#318=LINE('',#1724,#387);
#319=LINE('',#1726,#388);
#320=LINE('',#1733,#389);
#321=LINE('',#1736,#390);
#322=LINE('',#1739,#391);
#323=LINE('',#1741,#392);
#324=LINE('',#1742,#393);
#325=LINE('',#1745,#394);
#326=LINE('',#1747,#395);
#327=LINE('',#1749,#396);
#328=LINE('',#1754,#397);
#329=LINE('',#1757,#398);
#330=LINE('',#1759,#399);
#331=LINE('',#1760,#400);
#332=LINE('',#1762,#401);
#333=LINE('',#1764,#402);
#334=VECTOR('',#1115,10.);
#335=VECTOR('',#1116,10.);
#336=VECTOR('',#1117,10.);
#337=VECTOR('',#1118,10.);
#338=VECTOR('',#1133,2.15);
#339=VECTOR('',#1144,2.15);
#340=VECTOR('',#1153,1.25);
#341=VECTOR('',#1160,1.25);
#342=VECTOR('',#1169,1.25);
#343=VECTOR('',#1178,1.25);
#344=VECTOR('',#1191,12.3);
#345=VECTOR('',#1204,3.45);
#346=VECTOR('',#1207,1.95);
#347=VECTOR('',#1214,10.);
#348=VECTOR('',#1217,10.);
#349=VECTOR('',#1222,10.);
#350=VECTOR('',#1225,10.);
#351=VECTOR('',#1230,10.);
#352=VECTOR('',#1233,10.);
#353=VECTOR('',#1236,10.);
#354=VECTOR('',#1237,10.);
#355=VECTOR('',#1238,10.);
#356=VECTOR('',#1243,10.);
#357=VECTOR('',#1244,10.);
#358=VECTOR('',#1245,10.);
#359=VECTOR('',#1252,12.15);
#360=VECTOR('',#1263,12.15);
#361=VECTOR('',#1270,1.5);
#362=VECTOR('',#1277,4.);
#363=VECTOR('',#1286,10.);
#364=VECTOR('',#1289,10.);
#365=VECTOR('',#1296,10.);
#366=VECTOR('',#1303,10.);
#367=VECTOR('',#1306,10.);
#368=VECTOR('',#1307,10.);
#369=VECTOR('',#1308,10.);
#370=VECTOR('',#1315,10.);
#371=VECTOR('',#1322,10.);
#372=VECTOR('',#1329,10.);
#373=VECTOR('',#1332,10.);
#374=VECTOR('',#1333,10.);
#375=VECTOR('',#1342,10.);
#376=VECTOR('',#1345,10.);
#377=VECTOR('',#1348,10.);
#378=VECTOR('',#1351,10.);
#379=VECTOR('',#1352,10.);
#380=VECTOR('',#1353,10.);
#381=VECTOR('',#1356,10.);
#382=VECTOR('',#1357,10.);
#383=VECTOR('',#1362,10.);
#384=VECTOR('',#1365,10.);
#385=VECTOR('',#1366,10.);
#386=VECTOR('',#1369,10.);
#387=VECTOR('',#1370,10.);
#388=VECTOR('',#1373,10.);
#389=VECTOR('',#1380,10.);
#390=VECTOR('',#1383,10.);
#391=VECTOR('',#1386,10.);
#392=VECTOR('',#1387,10.);
#393=VECTOR('',#1388,10.);
#394=VECTOR('',#1391,10.);
#395=VECTOR('',#1392,10.);
#396=VECTOR('',#1393,10.);
#397=VECTOR('',#1400,10.);
#398=VECTOR('',#1403,10.);
#399=VECTOR('',#1404,10.);
#400=VECTOR('',#1405,10.);
#401=VECTOR('',#1408,10.);
#402=VECTOR('',#1411,10.);
#403=VERTEX_POINT('',#1416);
#404=VERTEX_POINT('',#1417);
#405=VERTEX_POINT('',#1419);
#406=VERTEX_POINT('',#1421);
#407=VERTEX_POINT('',#1427);
#408=VERTEX_POINT('',#1431);
#409=VERTEX_POINT('',#1433);
#410=VERTEX_POINT('',#1437);
#411=VERTEX_POINT('',#1440);
#412=VERTEX_POINT('',#1442);
#413=VERTEX_POINT('',#1446);
#414=VERTEX_POINT('',#1449);
#415=VERTEX_POINT('',#1454);
#416=VERTEX_POINT('',#1459);
#417=VERTEX_POINT('',#1461);
#418=VERTEX_POINT('',#1466);
#419=VERTEX_POINT('',#1468);
#420=VERTEX_POINT('',#1473);
#421=VERTEX_POINT('',#1475);
#422=VERTEX_POINT('',#1478);
#423=VERTEX_POINT('',#1483);
#424=VERTEX_POINT('',#1485);
#425=VERTEX_POINT('',#1492);
#426=VERTEX_POINT('',#1495);
#427=VERTEX_POINT('',#1496);
#428=VERTEX_POINT('',#1498);
#429=VERTEX_POINT('',#1500);
#430=VERTEX_POINT('',#1504);
#431=VERTEX_POINT('',#1505);
#432=VERTEX_POINT('',#1507);
#433=VERTEX_POINT('',#1509);
#434=VERTEX_POINT('',#1513);
#435=VERTEX_POINT('',#1524);
#436=VERTEX_POINT('',#1537);
#437=VERTEX_POINT('',#1548);
#438=VERTEX_POINT('',#1561);
#439=VERTEX_POINT('',#1562);
#440=VERTEX_POINT('',#1588);
#441=VERTEX_POINT('',#1589);
#442=VERTEX_POINT('',#1615);
#443=VERTEX_POINT('',#1620);
#444=VERTEX_POINT('',#1623);
#445=VERTEX_POINT('',#1627);
#446=VERTEX_POINT('',#1630);
#447=VERTEX_POINT('',#1634);
#448=VERTEX_POINT('',#1636);
#449=VERTEX_POINT('',#1641);
#450=VERTEX_POINT('',#1642);
#451=VERTEX_POINT('',#1644);
#452=VERTEX_POINT('',#1646);
#453=VERTEX_POINT('',#1650);
#454=VERTEX_POINT('',#1652);
#455=VERTEX_POINT('',#1656);
#456=VERTEX_POINT('',#1658);
#457=VERTEX_POINT('',#1662);
#458=VERTEX_POINT('',#1664);
#459=VERTEX_POINT('',#1668);
#460=VERTEX_POINT('',#1670);
#461=VERTEX_POINT('',#1674);
#462=VERTEX_POINT('',#1676);
#463=VERTEX_POINT('',#1680);
#464=VERTEX_POINT('',#1682);
#465=VERTEX_POINT('',#1691);
#466=VERTEX_POINT('',#1692);
#467=VERTEX_POINT('',#1694);
#468=VERTEX_POINT('',#1696);
#469=VERTEX_POINT('',#1700);
#470=VERTEX_POINT('',#1702);
#471=VERTEX_POINT('',#1704);
#472=VERTEX_POINT('',#1706);
#473=VERTEX_POINT('',#1710);
#474=VERTEX_POINT('',#1714);
#475=VERTEX_POINT('',#1718);
#476=VERTEX_POINT('',#1722);
#477=VERTEX_POINT('',#1729);
#478=VERTEX_POINT('',#1730);
#479=VERTEX_POINT('',#1732);
#480=VERTEX_POINT('',#1734);
#481=VERTEX_POINT('',#1738);
#482=VERTEX_POINT('',#1740);
#483=VERTEX_POINT('',#1744);
#484=VERTEX_POINT('',#1746);
#485=VERTEX_POINT('',#1748);
#486=VERTEX_POINT('',#1752);
#487=VERTEX_POINT('',#1756);
#488=VERTEX_POINT('',#1758);
#489=EDGE_CURVE('',#403,#404,#265,.T.);
#490=EDGE_CURVE('',#405,#403,#266,.T.);
#491=EDGE_CURVE('',#405,#406,#267,.T.);
#492=EDGE_CURVE('',#404,#406,#268,.T.);
#493=EDGE_CURVE('',#406,#405,#72,.T.);
#494=EDGE_CURVE('',#404,#407,#73,.T.);
#495=EDGE_CURVE('',#407,#403,#74,.T.);
#496=EDGE_CURVE('',#408,#408,#75,.T.);
#497=EDGE_CURVE('',#408,#409,#269,.T.);
#498=EDGE_CURVE('',#409,#409,#76,.T.);
#499=EDGE_CURVE('',#410,#410,#77,.T.);
#500=EDGE_CURVE('',#411,#411,#78,.T.);
#501=EDGE_CURVE('',#411,#412,#270,.T.);
#502=EDGE_CURVE('',#412,#412,#79,.T.);
#503=EDGE_CURVE('',#413,#413,#80,.T.);
#504=EDGE_CURVE('',#410,#414,#271,.T.);
#505=EDGE_CURVE('',#414,#414,#81,.T.);
#506=EDGE_CURVE('',#413,#415,#272,.T.);
#507=EDGE_CURVE('',#415,#415,#82,.T.);
#508=EDGE_CURVE('',#416,#416,#83,.T.);
#509=EDGE_CURVE('',#416,#417,#273,.T.);
#510=EDGE_CURVE('',#417,#417,#84,.T.);
#511=EDGE_CURVE('',#418,#418,#85,.T.);
#512=EDGE_CURVE('',#418,#419,#274,.T.);
#513=EDGE_CURVE('',#419,#419,#86,.T.);
#514=EDGE_CURVE('',#420,#420,#87,.T.);
#515=EDGE_CURVE('',#421,#421,#88,.T.);
#516=EDGE_CURVE('',#420,#422,#275,.T.);
#517=EDGE_CURVE('',#422,#422,#89,.T.);
#518=EDGE_CURVE('',#423,#423,#90,.T.);
#519=EDGE_CURVE('',#424,#424,#91,.T.);
#520=EDGE_CURVE('',#423,#421,#276,.T.);
#521=EDGE_CURVE('',#407,#424,#277,.T.);
#522=EDGE_CURVE('',#425,#425,#92,.T.);
#523=EDGE_CURVE('',#426,#427,#278,.T.);
#524=EDGE_CURVE('',#428,#426,#93,.T.);
#525=EDGE_CURVE('',#429,#428,#279,.T.);
#526=EDGE_CURVE('',#427,#429,#94,.T.);
#527=EDGE_CURVE('',#430,#431,#280,.T.);
#528=EDGE_CURVE('',#432,#430,#95,.T.);
#529=EDGE_CURVE('',#433,#432,#281,.T.);
#530=EDGE_CURVE('',#431,#433,#96,.T.);
#531=EDGE_CURVE('',#434,#433,#13,.T.);
#532=EDGE_CURVE('',#432,#435,#14,.T.);
#533=EDGE_CURVE('',#435,#434,#282,.T.);
#534=EDGE_CURVE('',#431,#436,#15,.T.);
#535=EDGE_CURVE('',#436,#437,#283,.T.);
#536=EDGE_CURVE('',#437,#430,#16,.T.);
#537=EDGE_CURVE('',#438,#439,#284,.T.);
#538=EDGE_CURVE('',#437,#438,#285,.T.);
#539=EDGE_CURVE('',#439,#436,#286,.T.);
#540=EDGE_CURVE('',#428,#438,#17,.T.);
#541=EDGE_CURVE('',#439,#429,#18,.T.);
#542=EDGE_CURVE('',#440,#441,#287,.T.);
#543=EDGE_CURVE('',#434,#440,#288,.T.);
#544=EDGE_CURVE('',#441,#435,#289,.T.);
#545=EDGE_CURVE('',#427,#440,#19,.T.);
#546=EDGE_CURVE('',#441,#426,#20,.T.);
#547=EDGE_CURVE('',#442,#442,#97,.T.);
#548=EDGE_CURVE('',#442,#425,#290,.T.);
#549=EDGE_CURVE('',#443,#443,#98,.T.);
#550=EDGE_CURVE('',#444,#444,#99,.T.);
#551=EDGE_CURVE('',#444,#443,#291,.T.);
#552=EDGE_CURVE('',#445,#445,#100,.T.);
#553=EDGE_CURVE('',#445,#446,#292,.T.);
#554=EDGE_CURVE('',#446,#446,#101,.T.);
#555=EDGE_CURVE('',#447,#447,#102,.T.);
#556=EDGE_CURVE('',#447,#448,#293,.T.);
#557=EDGE_CURVE('',#448,#448,#103,.T.);
#558=EDGE_CURVE('',#449,#450,#104,.T.);
#559=EDGE_CURVE('',#449,#451,#294,.T.);
#560=EDGE_CURVE('',#452,#451,#105,.T.);
#561=EDGE_CURVE('',#450,#452,#295,.T.);
#562=EDGE_CURVE('',#450,#453,#106,.T.);
#563=EDGE_CURVE('',#454,#452,#107,.T.);
#564=EDGE_CURVE('',#453,#454,#296,.T.);
#565=EDGE_CURVE('',#453,#455,#108,.T.);
#566=EDGE_CURVE('',#456,#454,#109,.T.);
#567=EDGE_CURVE('',#455,#456,#297,.T.);
#568=EDGE_CURVE('',#455,#457,#298,.T.);
#569=EDGE_CURVE('',#458,#456,#299,.T.);
#570=EDGE_CURVE('',#457,#458,#300,.T.);
#571=EDGE_CURVE('',#457,#459,#110,.T.);
#572=EDGE_CURVE('',#460,#458,#111,.T.);
#573=EDGE_CURVE('',#459,#460,#301,.T.);
#574=EDGE_CURVE('',#459,#461,#112,.T.);
#575=EDGE_CURVE('',#462,#460,#113,.T.);
#576=EDGE_CURVE('',#461,#462,#302,.T.);
#577=EDGE_CURVE('',#461,#463,#114,.T.);
#578=EDGE_CURVE('',#464,#462,#115,.T.);
#579=EDGE_CURVE('',#463,#464,#303,.T.);
#580=EDGE_CURVE('',#463,#449,#304,.T.);
#581=EDGE_CURVE('',#451,#464,#305,.T.);
#582=EDGE_CURVE('',#465,#466,#116,.T.);
#583=EDGE_CURVE('',#466,#467,#306,.T.);
#584=EDGE_CURVE('',#467,#468,#117,.T.);
#585=EDGE_CURVE('',#468,#465,#307,.T.);
#586=EDGE_CURVE('',#469,#467,#308,.T.);
#587=EDGE_CURVE('',#470,#469,#118,.T.);
#588=EDGE_CURVE('',#471,#470,#309,.T.);
#589=EDGE_CURVE('',#472,#471,#310,.T.);
#590=EDGE_CURVE('',#472,#468,#311,.T.);
#591=EDGE_CURVE('',#466,#473,#312,.T.);
#592=EDGE_CURVE('',#469,#473,#313,.T.);
#593=EDGE_CURVE('',#473,#474,#119,.T.);
#594=EDGE_CURVE('',#474,#470,#314,.T.);
#595=EDGE_CURVE('',#475,#474,#315,.T.);
#596=EDGE_CURVE('',#471,#475,#316,.T.);
#597=EDGE_CURVE('',#476,#465,#317,.T.);
#598=EDGE_CURVE('',#475,#476,#318,.T.);
#599=EDGE_CURVE('',#476,#472,#319,.T.);
#600=EDGE_CURVE('',#477,#478,#120,.T.);
#601=EDGE_CURVE('',#478,#479,#320,.T.);
#602=EDGE_CURVE('',#479,#480,#121,.T.);
#603=EDGE_CURVE('',#480,#477,#321,.T.);
#604=EDGE_CURVE('',#478,#481,#322,.T.);
#605=EDGE_CURVE('',#482,#481,#323,.T.);
#606=EDGE_CURVE('',#482,#479,#324,.T.);
#607=EDGE_CURVE('',#483,#477,#325,.T.);
#608=EDGE_CURVE('',#483,#484,#326,.T.);
#609=EDGE_CURVE('',#484,#485,#327,.T.);
#610=EDGE_CURVE('',#481,#485,#122,.T.);
#611=EDGE_CURVE('',#486,#482,#123,.T.);
#612=EDGE_CURVE('',#485,#486,#328,.T.);
#613=EDGE_CURVE('',#487,#486,#329,.T.);
#614=EDGE_CURVE('',#487,#488,#330,.T.);
#615=EDGE_CURVE('',#488,#480,#331,.T.);
#616=EDGE_CURVE('',#484,#487,#332,.T.);
#617=EDGE_CURVE('',#488,#483,#333,.T.);
#618=ORIENTED_EDGE('',*,*,#489,.F.);
#619=ORIENTED_EDGE('',*,*,#490,.F.);
#620=ORIENTED_EDGE('',*,*,#491,.T.);
#621=ORIENTED_EDGE('',*,*,#492,.F.);
#622=ORIENTED_EDGE('',*,*,#491,.F.);
#623=ORIENTED_EDGE('',*,*,#493,.F.);
#624=ORIENTED_EDGE('',*,*,#489,.T.);
#625=ORIENTED_EDGE('',*,*,#494,.T.);
#626=ORIENTED_EDGE('',*,*,#495,.T.);
#627=ORIENTED_EDGE('',*,*,#496,.F.);
#628=ORIENTED_EDGE('',*,*,#497,.T.);
#629=ORIENTED_EDGE('',*,*,#498,.T.);
#630=ORIENTED_EDGE('',*,*,#497,.F.);
#631=ORIENTED_EDGE('',*,*,#498,.F.);
#632=ORIENTED_EDGE('',*,*,#499,.F.);
#633=ORIENTED_EDGE('',*,*,#500,.F.);
#634=ORIENTED_EDGE('',*,*,#501,.T.);
#635=ORIENTED_EDGE('',*,*,#502,.T.);
#636=ORIENTED_EDGE('',*,*,#501,.F.);
#637=ORIENTED_EDGE('',*,*,#502,.F.);
#638=ORIENTED_EDGE('',*,*,#503,.F.);
#639=ORIENTED_EDGE('',*,*,#499,.T.);
#640=ORIENTED_EDGE('',*,*,#504,.T.);
#641=ORIENTED_EDGE('',*,*,#505,.T.);
#642=ORIENTED_EDGE('',*,*,#504,.F.);
#643=ORIENTED_EDGE('',*,*,#505,.F.);
#644=ORIENTED_EDGE('',*,*,#503,.T.);
#645=ORIENTED_EDGE('',*,*,#506,.T.);
#646=ORIENTED_EDGE('',*,*,#507,.T.);
#647=ORIENTED_EDGE('',*,*,#506,.F.);
#648=ORIENTED_EDGE('',*,*,#507,.F.);
#649=ORIENTED_EDGE('',*,*,#508,.F.);
#650=ORIENTED_EDGE('',*,*,#509,.T.);
#651=ORIENTED_EDGE('',*,*,#510,.T.);
#652=ORIENTED_EDGE('',*,*,#509,.F.);
#653=ORIENTED_EDGE('',*,*,#510,.F.);
#654=ORIENTED_EDGE('',*,*,#511,.F.);
#655=ORIENTED_EDGE('',*,*,#512,.T.);
#656=ORIENTED_EDGE('',*,*,#513,.T.);
#657=ORIENTED_EDGE('',*,*,#512,.F.);
#658=ORIENTED_EDGE('',*,*,#513,.F.);
#659=ORIENTED_EDGE('',*,*,#514,.T.);
#660=ORIENTED_EDGE('',*,*,#496,.T.);
#661=ORIENTED_EDGE('',*,*,#500,.T.);
#662=ORIENTED_EDGE('',*,*,#508,.T.);
#663=ORIENTED_EDGE('',*,*,#511,.T.);
#664=ORIENTED_EDGE('',*,*,#515,.T.);
#665=ORIENTED_EDGE('',*,*,#514,.F.);
#666=ORIENTED_EDGE('',*,*,#516,.T.);
#667=ORIENTED_EDGE('',*,*,#517,.F.);
#668=ORIENTED_EDGE('',*,*,#516,.F.);
#669=ORIENTED_EDGE('',*,*,#517,.T.);
#670=ORIENTED_EDGE('',*,*,#518,.T.);
#671=ORIENTED_EDGE('',*,*,#519,.T.);
#672=ORIENTED_EDGE('',*,*,#518,.F.);
#673=ORIENTED_EDGE('',*,*,#520,.T.);
#674=ORIENTED_EDGE('',*,*,#515,.F.);
#675=ORIENTED_EDGE('',*,*,#520,.F.);
#676=ORIENTED_EDGE('',*,*,#490,.T.);
#677=ORIENTED_EDGE('',*,*,#495,.F.);
#678=ORIENTED_EDGE('',*,*,#521,.T.);
#679=ORIENTED_EDGE('',*,*,#519,.F.);
#680=ORIENTED_EDGE('',*,*,#521,.F.);
#681=ORIENTED_EDGE('',*,*,#494,.F.);
#682=ORIENTED_EDGE('',*,*,#492,.T.);
#683=ORIENTED_EDGE('',*,*,#493,.T.);
#684=ORIENTED_EDGE('',*,*,#522,.F.);
#685=ORIENTED_EDGE('',*,*,#523,.F.);
#686=ORIENTED_EDGE('',*,*,#524,.F.);
#687=ORIENTED_EDGE('',*,*,#525,.F.);
#688=ORIENTED_EDGE('',*,*,#526,.F.);
#689=ORIENTED_EDGE('',*,*,#527,.F.);
#690=ORIENTED_EDGE('',*,*,#528,.F.);
#691=ORIENTED_EDGE('',*,*,#529,.F.);
#692=ORIENTED_EDGE('',*,*,#530,.F.);
#693=ORIENTED_EDGE('',*,*,#531,.T.);
#694=ORIENTED_EDGE('',*,*,#529,.T.);
#695=ORIENTED_EDGE('',*,*,#532,.T.);
#696=ORIENTED_EDGE('',*,*,#533,.T.);
#697=ORIENTED_EDGE('',*,*,#534,.T.);
#698=ORIENTED_EDGE('',*,*,#535,.T.);
#699=ORIENTED_EDGE('',*,*,#536,.T.);
#700=ORIENTED_EDGE('',*,*,#527,.T.);
#701=ORIENTED_EDGE('',*,*,#537,.F.);
#702=ORIENTED_EDGE('',*,*,#538,.F.);
#703=ORIENTED_EDGE('',*,*,#535,.F.);
#704=ORIENTED_EDGE('',*,*,#539,.F.);
#705=ORIENTED_EDGE('',*,*,#540,.T.);
#706=ORIENTED_EDGE('',*,*,#537,.T.);
#707=ORIENTED_EDGE('',*,*,#541,.T.);
#708=ORIENTED_EDGE('',*,*,#525,.T.);
#709=ORIENTED_EDGE('',*,*,#542,.F.);
#710=ORIENTED_EDGE('',*,*,#543,.F.);
#711=ORIENTED_EDGE('',*,*,#533,.F.);
#712=ORIENTED_EDGE('',*,*,#544,.F.);
#713=ORIENTED_EDGE('',*,*,#545,.T.);
#714=ORIENTED_EDGE('',*,*,#542,.T.);
#715=ORIENTED_EDGE('',*,*,#546,.T.);
#716=ORIENTED_EDGE('',*,*,#523,.T.);
#717=ORIENTED_EDGE('',*,*,#547,.F.);
#718=ORIENTED_EDGE('',*,*,#548,.T.);
#719=ORIENTED_EDGE('',*,*,#522,.T.);
#720=ORIENTED_EDGE('',*,*,#548,.F.);
#721=ORIENTED_EDGE('',*,*,#526,.T.);
#722=ORIENTED_EDGE('',*,*,#541,.F.);
#723=ORIENTED_EDGE('',*,*,#539,.T.);
#724=ORIENTED_EDGE('',*,*,#534,.F.);
#725=ORIENTED_EDGE('',*,*,#530,.T.);
#726=ORIENTED_EDGE('',*,*,#531,.F.);
#727=ORIENTED_EDGE('',*,*,#543,.T.);
#728=ORIENTED_EDGE('',*,*,#545,.F.);
#729=ORIENTED_EDGE('',*,*,#524,.T.);
#730=ORIENTED_EDGE('',*,*,#546,.F.);
#731=ORIENTED_EDGE('',*,*,#544,.T.);
#732=ORIENTED_EDGE('',*,*,#532,.F.);
#733=ORIENTED_EDGE('',*,*,#528,.T.);
#734=ORIENTED_EDGE('',*,*,#536,.F.);
#735=ORIENTED_EDGE('',*,*,#538,.T.);
#736=ORIENTED_EDGE('',*,*,#540,.F.);
#737=ORIENTED_EDGE('',*,*,#547,.T.);
#738=ORIENTED_EDGE('',*,*,#549,.F.);
#739=ORIENTED_EDGE('',*,*,#550,.F.);
#740=ORIENTED_EDGE('',*,*,#551,.T.);
#741=ORIENTED_EDGE('',*,*,#549,.T.);
#742=ORIENTED_EDGE('',*,*,#551,.F.);
#743=ORIENTED_EDGE('',*,*,#552,.F.);
#744=ORIENTED_EDGE('',*,*,#552,.T.);
#745=ORIENTED_EDGE('',*,*,#553,.T.);
#746=ORIENTED_EDGE('',*,*,#554,.F.);
#747=ORIENTED_EDGE('',*,*,#553,.F.);
#748=ORIENTED_EDGE('',*,*,#555,.F.);
#749=ORIENTED_EDGE('',*,*,#556,.T.);
#750=ORIENTED_EDGE('',*,*,#557,.F.);
#751=ORIENTED_EDGE('',*,*,#556,.F.);
#752=ORIENTED_EDGE('',*,*,#555,.T.);
#753=ORIENTED_EDGE('',*,*,#554,.T.);
#754=ORIENTED_EDGE('',*,*,#558,.F.);
#755=ORIENTED_EDGE('',*,*,#559,.T.);
#756=ORIENTED_EDGE('',*,*,#560,.F.);
#757=ORIENTED_EDGE('',*,*,#561,.F.);
#758=ORIENTED_EDGE('',*,*,#562,.F.);
#759=ORIENTED_EDGE('',*,*,#561,.T.);
#760=ORIENTED_EDGE('',*,*,#563,.F.);
#761=ORIENTED_EDGE('',*,*,#564,.F.);
#762=ORIENTED_EDGE('',*,*,#565,.F.);
#763=ORIENTED_EDGE('',*,*,#564,.T.);
#764=ORIENTED_EDGE('',*,*,#566,.F.);
#765=ORIENTED_EDGE('',*,*,#567,.F.);
#766=ORIENTED_EDGE('',*,*,#568,.F.);
#767=ORIENTED_EDGE('',*,*,#567,.T.);
#768=ORIENTED_EDGE('',*,*,#569,.F.);
#769=ORIENTED_EDGE('',*,*,#570,.F.);
#770=ORIENTED_EDGE('',*,*,#571,.F.);
#771=ORIENTED_EDGE('',*,*,#570,.T.);
#772=ORIENTED_EDGE('',*,*,#572,.F.);
#773=ORIENTED_EDGE('',*,*,#573,.F.);
#774=ORIENTED_EDGE('',*,*,#574,.F.);
#775=ORIENTED_EDGE('',*,*,#573,.T.);
#776=ORIENTED_EDGE('',*,*,#575,.F.);
#777=ORIENTED_EDGE('',*,*,#576,.F.);
#778=ORIENTED_EDGE('',*,*,#577,.F.);
#779=ORIENTED_EDGE('',*,*,#576,.T.);
#780=ORIENTED_EDGE('',*,*,#578,.F.);
#781=ORIENTED_EDGE('',*,*,#579,.F.);
#782=ORIENTED_EDGE('',*,*,#580,.F.);
#783=ORIENTED_EDGE('',*,*,#579,.T.);
#784=ORIENTED_EDGE('',*,*,#581,.F.);
#785=ORIENTED_EDGE('',*,*,#559,.F.);
#786=ORIENTED_EDGE('',*,*,#581,.T.);
#787=ORIENTED_EDGE('',*,*,#578,.T.);
#788=ORIENTED_EDGE('',*,*,#575,.T.);
#789=ORIENTED_EDGE('',*,*,#572,.T.);
#790=ORIENTED_EDGE('',*,*,#569,.T.);
#791=ORIENTED_EDGE('',*,*,#566,.T.);
#792=ORIENTED_EDGE('',*,*,#563,.T.);
#793=ORIENTED_EDGE('',*,*,#560,.T.);
#794=ORIENTED_EDGE('',*,*,#557,.T.);
#795=ORIENTED_EDGE('',*,*,#550,.T.);
#796=ORIENTED_EDGE('',*,*,#558,.T.);
#797=ORIENTED_EDGE('',*,*,#562,.T.);
#798=ORIENTED_EDGE('',*,*,#565,.T.);
#799=ORIENTED_EDGE('',*,*,#568,.T.);
#800=ORIENTED_EDGE('',*,*,#571,.T.);
#801=ORIENTED_EDGE('',*,*,#574,.T.);
#802=ORIENTED_EDGE('',*,*,#577,.T.);
#803=ORIENTED_EDGE('',*,*,#580,.T.);
#804=ORIENTED_EDGE('',*,*,#582,.T.);
#805=ORIENTED_EDGE('',*,*,#583,.T.);
#806=ORIENTED_EDGE('',*,*,#584,.T.);
#807=ORIENTED_EDGE('',*,*,#585,.T.);
#808=ORIENTED_EDGE('',*,*,#584,.F.);
#809=ORIENTED_EDGE('',*,*,#586,.F.);
#810=ORIENTED_EDGE('',*,*,#587,.F.);
#811=ORIENTED_EDGE('',*,*,#588,.F.);
#812=ORIENTED_EDGE('',*,*,#589,.F.);
#813=ORIENTED_EDGE('',*,*,#590,.T.);
#814=ORIENTED_EDGE('',*,*,#583,.F.);
#815=ORIENTED_EDGE('',*,*,#591,.T.);
#816=ORIENTED_EDGE('',*,*,#592,.F.);
#817=ORIENTED_EDGE('',*,*,#586,.T.);
#818=ORIENTED_EDGE('',*,*,#587,.T.);
#819=ORIENTED_EDGE('',*,*,#592,.T.);
#820=ORIENTED_EDGE('',*,*,#593,.T.);
#821=ORIENTED_EDGE('',*,*,#594,.T.);
#822=ORIENTED_EDGE('',*,*,#594,.F.);
#823=ORIENTED_EDGE('',*,*,#595,.F.);
#824=ORIENTED_EDGE('',*,*,#596,.F.);
#825=ORIENTED_EDGE('',*,*,#588,.T.);
#826=ORIENTED_EDGE('',*,*,#582,.F.);
#827=ORIENTED_EDGE('',*,*,#597,.F.);
#828=ORIENTED_EDGE('',*,*,#598,.F.);
#829=ORIENTED_EDGE('',*,*,#595,.T.);
#830=ORIENTED_EDGE('',*,*,#593,.F.);
#831=ORIENTED_EDGE('',*,*,#591,.F.);
#832=ORIENTED_EDGE('',*,*,#585,.F.);
#833=ORIENTED_EDGE('',*,*,#590,.F.);
#834=ORIENTED_EDGE('',*,*,#599,.F.);
#835=ORIENTED_EDGE('',*,*,#597,.T.);
#836=ORIENTED_EDGE('',*,*,#599,.T.);
#837=ORIENTED_EDGE('',*,*,#589,.T.);
#838=ORIENTED_EDGE('',*,*,#596,.T.);
#839=ORIENTED_EDGE('',*,*,#598,.T.);
#840=ORIENTED_EDGE('',*,*,#600,.T.);
#841=ORIENTED_EDGE('',*,*,#601,.T.);
#842=ORIENTED_EDGE('',*,*,#602,.T.);
#843=ORIENTED_EDGE('',*,*,#603,.T.);
#844=ORIENTED_EDGE('',*,*,#601,.F.);
#845=ORIENTED_EDGE('',*,*,#604,.T.);
#846=ORIENTED_EDGE('',*,*,#605,.F.);
#847=ORIENTED_EDGE('',*,*,#606,.T.);
#848=ORIENTED_EDGE('',*,*,#600,.F.);
#849=ORIENTED_EDGE('',*,*,#607,.F.);
#850=ORIENTED_EDGE('',*,*,#608,.T.);
#851=ORIENTED_EDGE('',*,*,#609,.T.);
#852=ORIENTED_EDGE('',*,*,#610,.F.);
#853=ORIENTED_EDGE('',*,*,#604,.F.);
#854=ORIENTED_EDGE('',*,*,#611,.T.);
#855=ORIENTED_EDGE('',*,*,#605,.T.);
#856=ORIENTED_EDGE('',*,*,#610,.T.);
#857=ORIENTED_EDGE('',*,*,#612,.T.);
#858=ORIENTED_EDGE('',*,*,#602,.F.);
#859=ORIENTED_EDGE('',*,*,#606,.F.);
#860=ORIENTED_EDGE('',*,*,#611,.F.);
#861=ORIENTED_EDGE('',*,*,#613,.F.);
#862=ORIENTED_EDGE('',*,*,#614,.T.);
#863=ORIENTED_EDGE('',*,*,#615,.T.);
#864=ORIENTED_EDGE('',*,*,#612,.F.);
#865=ORIENTED_EDGE('',*,*,#609,.F.);
#866=ORIENTED_EDGE('',*,*,#616,.T.);
#867=ORIENTED_EDGE('',*,*,#613,.T.);
#868=ORIENTED_EDGE('',*,*,#603,.F.);
#869=ORIENTED_EDGE('',*,*,#615,.F.);
#870=ORIENTED_EDGE('',*,*,#617,.T.);
#871=ORIENTED_EDGE('',*,*,#607,.T.);
#872=ORIENTED_EDGE('',*,*,#614,.F.);
#873=ORIENTED_EDGE('',*,*,#616,.F.);
#874=ORIENTED_EDGE('',*,*,#608,.F.);
#875=ORIENTED_EDGE('',*,*,#617,.F.);
#876=PLANE('',#995);
#877=PLANE('',#996);
#878=PLANE('',#998);
#879=PLANE('',#1004);
#880=PLANE('',#1009);
#881=PLANE('',#1013);
#882=PLANE('',#1016);
#883=PLANE('',#1020);
#884=PLANE('',#1024);
#885=PLANE('',#1025);
#886=PLANE('',#1030);
#887=PLANE('',#1031);
#888=PLANE('',#1036);
#889=PLANE('',#1038);
#890=PLANE('',#1041);
#891=PLANE('',#1046);
#892=PLANE('',#1048);
#893=PLANE('',#1052);
#894=PLANE('',#1053);
#895=PLANE('',#1057);
#896=PLANE('',#1064);
#897=PLANE('',#1074);
#898=PLANE('',#1084);
#899=PLANE('',#1085);
#900=PLANE('',#1086);
#901=PLANE('',#1090);
#902=PLANE('',#1092);
#903=PLANE('',#1095);
#904=PLANE('',#1096);
#905=PLANE('',#1097);
#906=PLANE('',#1098);
#907=PLANE('',#1102);
#908=PLANE('',#1103);
#909=PLANE('',#1107);
#910=PLANE('',#1108);
#911=PLANE('',#1109);
#912=PLANE('',#1110);
#913=ADVANCED_FACE('',(#124),#876,.F.);
#914=ADVANCED_FACE('',(#125),#877,.T.);
#915=ADVANCED_FACE('',(#126),#878,.T.);
#916=ADVANCED_FACE('',(#127),#45,.F.);
#917=ADVANCED_FACE('',(#128,#32),#879,.T.);
#918=ADVANCED_FACE('',(#129),#46,.F.);
#919=ADVANCED_FACE('',(#130,#33),#880,.T.);
#920=ADVANCED_FACE('',(#131),#47,.F.);
#921=ADVANCED_FACE('',(#132),#881,.T.);
#922=ADVANCED_FACE('',(#133),#48,.F.);
#923=ADVANCED_FACE('',(#134),#882,.T.);
#924=ADVANCED_FACE('',(#135),#49,.F.);
#925=ADVANCED_FACE('',(#136),#883,.T.);
#926=ADVANCED_FACE('',(#137),#50,.F.);
#927=ADVANCED_FACE('',(#138),#884,.T.);
#928=ADVANCED_FACE('',(#139,#34,#35,#36,#37,#38),#885,.F.);
#929=ADVANCED_FACE('',(#140),#51,.T.);
#930=ADVANCED_FACE('',(#141),#886,.T.);
#931=ADVANCED_FACE('',(#142,#39),#887,.T.);
#932=ADVANCED_FACE('',(#143),#52,.T.);
#933=ADVANCED_FACE('',(#144),#53,.T.);
#934=ADVANCED_FACE('',(#145),#888,.F.);
#935=ADVANCED_FACE('',(#146),#889,.F.);
#936=ADVANCED_FACE('',(#147),#890,.F.);
#937=ADVANCED_FACE('',(#148),#54,.F.);
#938=ADVANCED_FACE('',(#149),#55,.F.);
#939=ADVANCED_FACE('',(#150),#891,.F.);
#940=ADVANCED_FACE('',(#151),#56,.F.);
#941=ADVANCED_FACE('',(#152),#892,.F.);
#942=ADVANCED_FACE('',(#153),#57,.F.);
#943=ADVANCED_FACE('',(#154,#40,#41),#58,.T.);
#944=ADVANCED_FACE('',(#155),#893,.T.);
#945=ADVANCED_FACE('',(#156),#894,.F.);
#946=ADVANCED_FACE('',(#157),#59,.T.);
#947=ADVANCED_FACE('',(#158),#895,.T.);
#948=ADVANCED_FACE('',(#159),#60,.F.);
#949=ADVANCED_FACE('',(#160),#61,.T.);
#950=ADVANCED_FACE('',(#161,#42),#896,.T.);
#951=ADVANCED_FACE('',(#162),#62,.T.);
#952=ADVANCED_FACE('',(#163),#63,.T.);
#953=ADVANCED_FACE('',(#164),#64,.T.);
#954=ADVANCED_FACE('',(#165),#897,.T.);
#955=ADVANCED_FACE('',(#166),#65,.T.);
#956=ADVANCED_FACE('',(#167),#66,.T.);
#957=ADVANCED_FACE('',(#168),#67,.T.);
#958=ADVANCED_FACE('',(#169),#898,.T.);
#959=ADVANCED_FACE('',(#170,#43),#899,.T.);
#960=ADVANCED_FACE('',(#171,#44),#900,.T.);
#961=ADVANCED_FACE('',(#172),#68,.T.);
#962=ADVANCED_FACE('',(#173),#901,.T.);
#963=ADVANCED_FACE('',(#174),#902,.T.);
#964=ADVANCED_FACE('',(#175),#69,.T.);
#965=ADVANCED_FACE('',(#176),#903,.T.);
#966=ADVANCED_FACE('',(#177),#904,.T.);
#967=ADVANCED_FACE('',(#178),#905,.T.);
#968=ADVANCED_FACE('',(#179),#906,.F.);
#969=ADVANCED_FACE('',(#180),#70,.T.);
#970=ADVANCED_FACE('',(#181),#907,.T.);
#971=ADVANCED_FACE('',(#182),#908,.T.);
#972=ADVANCED_FACE('',(#183),#71,.T.);
#973=ADVANCED_FACE('',(#184),#909,.T.);
#974=ADVANCED_FACE('',(#185),#910,.T.);
#975=ADVANCED_FACE('',(#186),#911,.T.);
#976=ADVANCED_FACE('',(#187),#912,.F.);
#977=CLOSED_SHELL('',(#913,#914,#915,#916,#917,#918,#919,#920,#921,#922,
#923,#924,#925,#926,#927,#928,#929,#930,#931,#932,#933));
#978=CLOSED_SHELL('',(#934,#935,#936,#937,#938,#939,#940,#941,#942,#943,
#944));
#979=CLOSED_SHELL('',(#945,#946,#947,#948,#949,#950,#951,#952,#953,#954,
#955,#956,#957,#958,#959,#960));
#980=CLOSED_SHELL('',(#961,#962,#963,#964,#965,#966,#967,#968));
#981=CLOSED_SHELL('',(#969,#970,#971,#972,#973,#974,#975,#976));
#982=DERIVED_UNIT_ELEMENT(#984,1.);
#983=DERIVED_UNIT_ELEMENT(#1771,-3.);
#984=(
MASS_UNIT()
NAMED_UNIT(*)
SI_UNIT(.KILO.,.GRAM.)
);
#985=DERIVED_UNIT((#982,#983));
#986=MEASURE_REPRESENTATION_ITEM('density measure',
POSITIVE_RATIO_MEASURE(7850.),#985);
#987=PROPERTY_DEFINITION_REPRESENTATION(#992,#989);
#988=PROPERTY_DEFINITION_REPRESENTATION(#993,#990);
#989=REPRESENTATION('material name',(#991),#1768);
#990=REPRESENTATION('density',(#986),#1768);
#991=DESCRIPTIVE_REPRESENTATION_ITEM('Steel','Steel');
#992=PROPERTY_DEFINITION('material property','material name',#1778);
#993=PROPERTY_DEFINITION('material property','density of part',#1778);
#994=AXIS2_PLACEMENT_3D('',#1414,#1111,#1112);
#995=AXIS2_PLACEMENT_3D('',#1415,#1113,#1114);
#996=AXIS2_PLACEMENT_3D('',#1424,#1119,#1120);
#997=AXIS2_PLACEMENT_3D('',#1425,#1121,#1122);
#998=AXIS2_PLACEMENT_3D('',#1426,#1123,#1124);
#999=AXIS2_PLACEMENT_3D('',#1428,#1125,#1126);
#1000=AXIS2_PLACEMENT_3D('',#1429,#1127,#1128);
#1001=AXIS2_PLACEMENT_3D('',#1430,#1129,#1130);
#1002=AXIS2_PLACEMENT_3D('',#1432,#1131,#1132);
#1003=AXIS2_PLACEMENT_3D('',#1435,#1134,#1135);
#1004=AXIS2_PLACEMENT_3D('',#1436,#1136,#1137);
#1005=AXIS2_PLACEMENT_3D('',#1438,#1138,#1139);
#1006=AXIS2_PLACEMENT_3D('',#1439,#1140,#1141);
#1007=AXIS2_PLACEMENT_3D('',#1441,#1142,#1143);
#1008=AXIS2_PLACEMENT_3D('',#1444,#1145,#1146);
#1009=AXIS2_PLACEMENT_3D('',#1445,#1147,#1148);
#1010=AXIS2_PLACEMENT_3D('',#1447,#1149,#1150);
#1011=AXIS2_PLACEMENT_3D('',#1448,#1151,#1152);
#1012=AXIS2_PLACEMENT_3D('',#1451,#1154,#1155);
#1013=AXIS2_PLACEMENT_3D('',#1452,#1156,#1157);
#1014=AXIS2_PLACEMENT_3D('',#1453,#1158,#1159);
#1015=AXIS2_PLACEMENT_3D('',#1456,#1161,#1162);
#1016=AXIS2_PLACEMENT_3D('',#1457,#1163,#1164);
#1017=AXIS2_PLACEMENT_3D('',#1458,#1165,#1166);
#1018=AXIS2_PLACEMENT_3D('',#1460,#1167,#1168);
#1019=AXIS2_PLACEMENT_3D('',#1463,#1170,#1171);
#1020=AXIS2_PLACEMENT_3D('',#1464,#1172,#1173);
#1021=AXIS2_PLACEMENT_3D('',#1465,#1174,#1175);
#1022=AXIS2_PLACEMENT_3D('',#1467,#1176,#1177);
#1023=AXIS2_PLACEMENT_3D('',#1470,#1179,#1180);
#1024=AXIS2_PLACEMENT_3D('',#1471,#1181,#1182);
#1025=AXIS2_PLACEMENT_3D('',#1472,#1183,#1184);
#1026=AXIS2_PLACEMENT_3D('',#1474,#1185,#1186);
#1027=AXIS2_PLACEMENT_3D('',#1476,#1187,#1188);
#1028=AXIS2_PLACEMENT_3D('',#1477,#1189,#1190);
#1029=AXIS2_PLACEMENT_3D('',#1480,#1192,#1193);
#1030=AXIS2_PLACEMENT_3D('',#1481,#1194,#1195);
#1031=AXIS2_PLACEMENT_3D('',#1482,#1196,#1197);
#1032=AXIS2_PLACEMENT_3D('',#1484,#1198,#1199);
#1033=AXIS2_PLACEMENT_3D('',#1486,#1200,#1201);
#1034=AXIS2_PLACEMENT_3D('',#1487,#1202,#1203);
#1035=AXIS2_PLACEMENT_3D('',#1489,#1205,#1206);
#1036=AXIS2_PLACEMENT_3D('',#1491,#1208,#1209);
#1037=AXIS2_PLACEMENT_3D('',#1493,#1210,#1211);
#1038=AXIS2_PLACEMENT_3D('',#1494,#1212,#1213);
#1039=AXIS2_PLACEMENT_3D('',#1499,#1215,#1216);
#1040=AXIS2_PLACEMENT_3D('',#1502,#1218,#1219);
#1041=AXIS2_PLACEMENT_3D('',#1503,#1220,#1221);
#1042=AXIS2_PLACEMENT_3D('',#1508,#1223,#1224);
#1043=AXIS2_PLACEMENT_3D('',#1511,#1226,#1227);
#1044=AXIS2_PLACEMENT_3D('',#1512,#1228,#1229);
#1045=AXIS2_PLACEMENT_3D('',#1536,#1231,#1232);
#1046=AXIS2_PLACEMENT_3D('',#1560,#1234,#1235);
#1047=AXIS2_PLACEMENT_3D('',#1566,#1239,#1240);
#1048=AXIS2_PLACEMENT_3D('',#1587,#1241,#1242);
#1049=AXIS2_PLACEMENT_3D('',#1593,#1246,#1247);
#1050=AXIS2_PLACEMENT_3D('',#1614,#1248,#1249);
#1051=AXIS2_PLACEMENT_3D('',#1616,#1250,#1251);
#1052=AXIS2_PLACEMENT_3D('',#1618,#1253,#1254);
#1053=AXIS2_PLACEMENT_3D('',#1619,#1255,#1256);
#1054=AXIS2_PLACEMENT_3D('',#1621,#1257,#1258);
#1055=AXIS2_PLACEMENT_3D('',#1622,#1259,#1260);
#1056=AXIS2_PLACEMENT_3D('',#1624,#1261,#1262);
#1057=AXIS2_PLACEMENT_3D('',#1626,#1264,#1265);
#1058=AXIS2_PLACEMENT_3D('',#1628,#1266,#1267);
#1059=AXIS2_PLACEMENT_3D('',#1629,#1268,#1269);
#1060=AXIS2_PLACEMENT_3D('',#1632,#1271,#1272);
#1061=AXIS2_PLACEMENT_3D('',#1633,#1273,#1274);
#1062=AXIS2_PLACEMENT_3D('',#1635,#1275,#1276);
#1063=AXIS2_PLACEMENT_3D('',#1638,#1278,#1279);
#1064=AXIS2_PLACEMENT_3D('',#1639,#1280,#1281);
#1065=AXIS2_PLACEMENT_3D('',#1640,#1282,#1283);
#1066=AXIS2_PLACEMENT_3D('',#1643,#1284,#1285);
#1067=AXIS2_PLACEMENT_3D('',#1647,#1287,#1288);
#1068=AXIS2_PLACEMENT_3D('',#1649,#1290,#1291);
#1069=AXIS2_PLACEMENT_3D('',#1651,#1292,#1293);
#1070=AXIS2_PLACEMENT_3D('',#1653,#1294,#1295);
#1071=AXIS2_PLACEMENT_3D('',#1655,#1297,#1298);
#1072=AXIS2_PLACEMENT_3D('',#1657,#1299,#1300);
#1073=AXIS2_PLACEMENT_3D('',#1659,#1301,#1302);
#1074=AXIS2_PLACEMENT_3D('',#1661,#1304,#1305);
#1075=AXIS2_PLACEMENT_3D('',#1667,#1309,#1310);
#1076=AXIS2_PLACEMENT_3D('',#1669,#1311,#1312);
#1077=AXIS2_PLACEMENT_3D('',#1671,#1313,#1314);
#1078=AXIS2_PLACEMENT_3D('',#1673,#1316,#1317);
#1079=AXIS2_PLACEMENT_3D('',#1675,#1318,#1319);
#1080=AXIS2_PLACEMENT_3D('',#1677,#1320,#1321);
#1081=AXIS2_PLACEMENT_3D('',#1679,#1323,#1324);
#1082=AXIS2_PLACEMENT_3D('',#1681,#1325,#1326);
#1083=AXIS2_PLACEMENT_3D('',#1683,#1327,#1328);
#1084=AXIS2_PLACEMENT_3D('',#1685,#1330,#1331);
#1085=AXIS2_PLACEMENT_3D('',#1688,#1334,#1335);
#1086=AXIS2_PLACEMENT_3D('',#1689,#1336,#1337);
#1087=AXIS2_PLACEMENT_3D('',#1690,#1338,#1339);
#1088=AXIS2_PLACEMENT_3D('',#1693,#1340,#1341);
#1089=AXIS2_PLACEMENT_3D('',#1697,#1343,#1344);
#1090=AXIS2_PLACEMENT_3D('',#1699,#1346,#1347);
#1091=AXIS2_PLACEMENT_3D('',#1703,#1349,#1350);
#1092=AXIS2_PLACEMENT_3D('',#1709,#1354,#1355);
#1093=AXIS2_PLACEMENT_3D('',#1713,#1358,#1359);
#1094=AXIS2_PLACEMENT_3D('',#1715,#1360,#1361);
#1095=AXIS2_PLACEMENT_3D('',#1717,#1363,#1364);
#1096=AXIS2_PLACEMENT_3D('',#1721,#1367,#1368);
#1097=AXIS2_PLACEMENT_3D('',#1725,#1371,#1372);
#1098=AXIS2_PLACEMENT_3D('',#1727,#1374,#1375);
#1099=AXIS2_PLACEMENT_3D('',#1728,#1376,#1377);
#1100=AXIS2_PLACEMENT_3D('',#1731,#1378,#1379);
#1101=AXIS2_PLACEMENT_3D('',#1735,#1381,#1382);
#1102=AXIS2_PLACEMENT_3D('',#1737,#1384,#1385);
#1103=AXIS2_PLACEMENT_3D('',#1743,#1389,#1390);
#1104=AXIS2_PLACEMENT_3D('',#1750,#1394,#1395);
#1105=AXIS2_PLACEMENT_3D('',#1751,#1396,#1397);
#1106=AXIS2_PLACEMENT_3D('',#1753,#1398,#1399);
#1107=AXIS2_PLACEMENT_3D('',#1755,#1401,#1402);
#1108=AXIS2_PLACEMENT_3D('',#1761,#1406,#1407);
#1109=AXIS2_PLACEMENT_3D('',#1763,#1409,#1410);
#1110=AXIS2_PLACEMENT_3D('',#1765,#1412,#1413);
#1111=DIRECTION('axis',(0.,0.,1.));
#1112=DIRECTION('refdir',(1.,0.,0.));
#1113=DIRECTION('center_axis',(0.,-1.,0.));
#1114=DIRECTION('ref_axis',(0.,0.,-1.));
#1115=DIRECTION('',(0.,0.,-1.));
#1116=DIRECTION('',(-1.,0.,0.));
#1117=DIRECTION('',(0.,0.,-1.));
#1118=DIRECTION('',(1.,0.,0.));
#1119=DIRECTION('center_axis',(-1.,0.,0.));
#1120=DIRECTION('ref_axis',(0.,0.,1.));
#1121=DIRECTION('center_axis',(1.,0.,0.));
#1122=DIRECTION('ref_axis',(0.,0.,1.));
#1123=DIRECTION('center_axis',(-1.,0.,0.));
#1124=DIRECTION('ref_axis',(0.,0.,1.));
#1125=DIRECTION('center_axis',(-1.,0.,0.));
#1126=DIRECTION('ref_axis',(0.,0.,1.));
#1127=DIRECTION('center_axis',(-1.,0.,0.));
#1128=DIRECTION('ref_axis',(0.,0.,1.));
#1129=DIRECTION('center_axis',(1.,0.,0.));
#1130=DIRECTION('ref_axis',(0.,0.,1.));
#1131=DIRECTION('center_axis',(1.,0.,0.));
#1132=DIRECTION('ref_axis',(0.,0.,1.));
#1133=DIRECTION('',(1.,0.,0.));
#1134=DIRECTION('center_axis',(1.,0.,0.));
#1135=DIRECTION('ref_axis',(0.,0.,1.));
#1136=DIRECTION('center_axis',(-1.,0.,0.));
#1137=DIRECTION('ref_axis',(0.,0.,1.));
#1138=DIRECTION('center_axis',(-1.,0.,0.));
#1139=DIRECTION('ref_axis',(0.,0.,1.));
#1140=DIRECTION('center_axis',(1.,0.,0.));
#1141=DIRECTION('ref_axis',(0.,0.,1.));
#1142=DIRECTION('center_axis',(1.,0.,0.));
#1143=DIRECTION('ref_axis',(0.,0.,1.));
#1144=DIRECTION('',(1.,0.,0.));
#1145=DIRECTION('center_axis',(1.,0.,0.));
#1146=DIRECTION('ref_axis',(0.,0.,1.));
#1147=DIRECTION('center_axis',(-1.,0.,0.));
#1148=DIRECTION('ref_axis',(0.,0.,1.));
#1149=DIRECTION('center_axis',(-1.,0.,0.));
#1150=DIRECTION('ref_axis',(0.,0.,1.));
#1151=DIRECTION('center_axis',(1.,0.,0.));
#1152=DIRECTION('ref_axis',(0.,0.,1.));
#1153=DIRECTION('',(1.,0.,0.));
#1154=DIRECTION('center_axis',(1.,0.,0.));
#1155=DIRECTION('ref_axis',(0.,0.,1.));
#1156=DIRECTION('center_axis',(-1.,0.,0.));
#1157=DIRECTION('ref_axis',(0.,0.,1.));
#1158=DIRECTION('center_axis',(1.,0.,0.));
#1159=DIRECTION('ref_axis',(0.,0.,1.));
#1160=DIRECTION('',(1.,0.,0.));
#1161=DIRECTION('center_axis',(1.,0.,0.));
#1162=DIRECTION('ref_axis',(0.,0.,1.));
#1163=DIRECTION('center_axis',(-1.,0.,0.));
#1164=DIRECTION('ref_axis',(0.,0.,1.));
#1165=DIRECTION('center_axis',(1.,0.,0.));
#1166=DIRECTION('ref_axis',(0.,0.,1.));
#1167=DIRECTION('center_axis',(1.,0.,0.));
#1168=DIRECTION('ref_axis',(0.,0.,1.));
#1169=DIRECTION('',(1.,0.,0.));
#1170=DIRECTION('center_axis',(1.,0.,0.));
#1171=DIRECTION('ref_axis',(0.,0.,1.));
#1172=DIRECTION('center_axis',(-1.,0.,0.));
#1173=DIRECTION('ref_axis',(0.,0.,1.));
#1174=DIRECTION('center_axis',(1.,0.,0.));
#1175=DIRECTION('ref_axis',(0.,0.,1.));
#1176=DIRECTION('center_axis',(1.,0.,0.));
#1177=DIRECTION('ref_axis',(0.,0.,1.));
#1178=DIRECTION('',(1.,0.,0.));
#1179=DIRECTION('center_axis',(1.,0.,0.));
#1180=DIRECTION('ref_axis',(0.,0.,1.));
#1181=DIRECTION('center_axis',(-1.,0.,0.));
#1182=DIRECTION('ref_axis',(0.,0.,1.));
#1183=DIRECTION('center_axis',(1.,0.,0.));
#1184=DIRECTION('ref_axis',(0.,0.,-1.));
#1185=DIRECTION('center_axis',(-1.,0.,0.));
#1186=DIRECTION('ref_axis',(0.,0.,-1.));
#1187=DIRECTION('center_axis',(1.,0.,0.));
#1188=DIRECTION('ref_axis',(0.,0.,1.));
#1189=DIRECTION('center_axis',(-1.,0.,0.));
#1190=DIRECTION('ref_axis',(0.,0.,-1.));
#1191=DIRECTION('',(1.,0.,0.));
#1192=DIRECTION('center_axis',(1.,0.,0.));
#1193=DIRECTION('ref_axis',(0.,0.,-1.));
#1194=DIRECTION('center_axis',(1.,0.,0.));
#1195=DIRECTION('ref_axis',(0.,0.,-1.));
#1196=DIRECTION('center_axis',(-1.,0.,0.));
#1197=DIRECTION('ref_axis',(0.,0.,1.));
#1198=DIRECTION('center_axis',(-1.,0.,0.));
#1199=DIRECTION('ref_axis',(0.,0.,1.));
#1200=DIRECTION('center_axis',(1.,0.,0.));
#1201=DIRECTION('ref_axis',(0.,0.,1.));
#1202=DIRECTION('center_axis',(-1.,0.,0.));
#1203=DIRECTION('ref_axis',(0.,0.,1.));
#1204=DIRECTION('',(1.,0.,0.));
#1205=DIRECTION('center_axis',(-1.,0.,0.));
#1206=DIRECTION('ref_axis',(0.,0.,1.));
#1207=DIRECTION('',(1.,0.,0.));
#1208=DIRECTION('center_axis',(1.,0.,0.));
#1209=DIRECTION('ref_axis',(0.,0.,-1.));
#1210=DIRECTION('center_axis',(1.,0.,0.));
#1211=DIRECTION('ref_axis',(0.,0.,-1.));
#1212=DIRECTION('center_axis',(1.,0.,0.));
#1213=DIRECTION('ref_axis',(0.,0.,-1.));
#1214=DIRECTION('',(0.,-1.,0.));
#1215=DIRECTION('center_axis',(1.,0.,0.));
#1216=DIRECTION('ref_axis',(0.,0.,-1.));
#1217=DIRECTION('',(0.,1.,0.));
#1218=DIRECTION('center_axis',(1.,0.,0.));
#1219=DIRECTION('ref_axis',(0.,0.,-1.));
#1220=DIRECTION('center_axis',(-1.,0.,0.));
#1221=DIRECTION('ref_axis',(0.,0.,1.));
#1222=DIRECTION('',(0.,-1.,0.));
#1223=DIRECTION('center_axis',(-1.,0.,0.));
#1224=DIRECTION('ref_axis',(0.,0.,-1.));
#1225=DIRECTION('',(0.,1.,0.));
#1226=DIRECTION('center_axis',(-1.,0.,0.));
#1227=DIRECTION('ref_axis',(0.,0.,-1.));
#1228=DIRECTION('center_axis',(0.,1.,0.));
#1229=DIRECTION('ref_axis',(-0.707106781186549,0.,0.707106781186546));
#1230=DIRECTION('',(0.,-1.,0.));
#1231=DIRECTION('center_axis',(0.,1.,0.));
#1232=DIRECTION('ref_axis',(-0.707106781186549,0.,-0.707106781186546));
#1233=DIRECTION('',(0.,1.,0.));
#1234=DIRECTION('center_axis',(0.,0.,-1.));
#1235=DIRECTION('ref_axis',(-1.,0.,0.));
#1236=DIRECTION('',(0.,-1.,0.));
#1237=DIRECTION('',(1.,0.,0.));
#1238=DIRECTION('',(-1.,0.,0.));
#1239=DIRECTION('center_axis',(0.,-1.,0.));
#1240=DIRECTION('ref_axis',(0.707106781186546,0.,-0.707106781186549));
#1241=DIRECTION('center_axis',(0.,0.,1.));
#1242=DIRECTION('ref_axis',(1.,0.,0.));
#1243=DIRECTION('',(0.,1.,0.));
#1244=DIRECTION('',(1.,0.,0.));
#1245=DIRECTION('',(-1.,0.,0.));
#1246=DIRECTION('center_axis',(0.,1.,0.));
#1247=DIRECTION('ref_axis',(0.707106781186546,0.,0.707106781186549));
#1248=DIRECTION('center_axis',(1.,0.,0.));
#1249=DIRECTION('ref_axis',(0.,0.,-1.));
#1250=DIRECTION('center_axis',(1.,0.,0.));
#1251=DIRECTION('ref_axis',(0.,0.,-1.));
#1252=DIRECTION('',(-1.,0.,0.));
#1253=DIRECTION('center_axis',(1.,0.,0.));
#1254=DIRECTION('ref_axis',(0.,0.,-1.));
#1255=DIRECTION('center_axis',(1.,0.,0.));
#1256=DIRECTION('ref_axis',(0.,0.,-1.));
#1257=DIRECTION('center_axis',(1.,0.,0.));
#1258=DIRECTION('ref_axis',(0.,0.,-1.));
#1259=DIRECTION('center_axis',(1.,0.,0.));
#1260=DIRECTION('ref_axis',(0.,0.,-1.));
#1261=DIRECTION('center_axis',(1.,0.,0.));
#1262=DIRECTION('ref_axis',(0.,0.,-1.));
#1263=DIRECTION('',(-1.,0.,0.));
#1264=DIRECTION('center_axis',(1.,0.,0.));
#1265=DIRECTION('ref_axis',(0.,0.,-1.));
#1266=DIRECTION('center_axis',(-1.,0.,0.));
#1267=DIRECTION('ref_axis',(0.,0.,-1.));
#1268=DIRECTION('center_axis',(1.,0.,0.));
#1269=DIRECTION('ref_axis',(0.,0.,-1.));
#1270=DIRECTION('',(1.,0.,0.));
#1271=DIRECTION('center_axis',(-1.,0.,0.));
#1272=DIRECTION('ref_axis',(0.,0.,-1.));
#1273=DIRECTION('center_axis',(1.,0.,0.));
#1274=DIRECTION('ref_axis',(0.,0.,-1.));
#1275=DIRECTION('center_axis',(1.,0.,0.));
#1276=DIRECTION('ref_axis',(0.,0.,-1.));
#1277=DIRECTION('',(-1.,0.,0.));
#1278=DIRECTION('center_axis',(-1.,0.,0.));
#1279=DIRECTION('ref_axis',(0.,0.,-1.));
#1280=DIRECTION('center_axis',(1.,0.,0.));
#1281=DIRECTION('ref_axis',(0.,0.,-1.));
#1282=DIRECTION('center_axis',(1.,0.,0.));
#1283=DIRECTION('ref_axis',(0.,-0.411392405063281,0.911458330948952));
#1284=DIRECTION('center_axis',(-1.,0.,0.));
#1285=DIRECTION('ref_axis',(0.,-0.411392405063281,0.911458330948952));
#1286=DIRECTION('',(1.,0.,0.));
#1287=DIRECTION('center_axis',(1.,0.,0.));
#1288=DIRECTION('ref_axis',(0.,-0.411392405063281,0.911458330948952));
#1289=DIRECTION('',(1.,0.,0.));
#1290=DIRECTION('center_axis',(1.,0.,0.));
#1291=DIRECTION('ref_axis',(0.,0.411392405063291,0.911458330948947));
#1292=DIRECTION('center_axis',(-1.,0.,0.));
#1293=DIRECTION('ref_axis',(0.,0.411392405063291,0.911458330948947));
#1294=DIRECTION('center_axis',(1.,0.,0.));
#1295=DIRECTION('ref_axis',(0.,0.411392405063291,0.911458330948947));
#1296=DIRECTION('',(1.,0.,0.));
#1297=DIRECTION('center_axis',(1.,0.,0.));
#1298=DIRECTION('ref_axis',(0.,1.,-3.33066907387548E-15));
#1299=DIRECTION('center_axis',(-1.,0.,0.));
#1300=DIRECTION('ref_axis',(0.,1.,-3.33066907387548E-15));
#1301=DIRECTION('center_axis',(1.,0.,0.));
#1302=DIRECTION('ref_axis',(0.,1.,-3.33066907387548E-15));
#1303=DIRECTION('',(1.,0.,0.));
#1304=DIRECTION('center_axis',(0.,1.,0.));
#1305=DIRECTION('ref_axis',(0.,0.,1.));
#1306=DIRECTION('',(0.,0.,-1.));
#1307=DIRECTION('',(0.,0.,1.));
#1308=DIRECTION('',(1.,0.,0.));
#1309=DIRECTION('center_axis',(1.,0.,0.));
#1310=DIRECTION('ref_axis',(0.,0.41139240506329,-0.911458330948948));
#1311=DIRECTION('center_axis',(-1.,0.,0.));
#1312=DIRECTION('ref_axis',(0.,0.41139240506329,-0.911458330948948));
#1313=DIRECTION('center_axis',(1.,0.,0.));
#1314=DIRECTION('ref_axis',(0.,0.41139240506329,-0.911458330948948));
#1315=DIRECTION('',(1.,0.,0.));
#1316=DIRECTION('center_axis',(1.,0.,0.));
#1317=DIRECTION('ref_axis',(0.,-0.411392405063293,-0.911458330948946));
#1318=DIRECTION('center_axis',(-1.,0.,0.));
#1319=DIRECTION('ref_axis',(0.,-0.411392405063293,-0.911458330948946));
#1320=DIRECTION('center_axis',(1.,0.,0.));
#1321=DIRECTION('ref_axis',(0.,-0.411392405063293,-0.911458330948946));
#1322=DIRECTION('',(1.,0.,0.));
#1323=DIRECTION('center_axis',(1.,0.,0.));
#1324=DIRECTION('ref_axis',(0.,-1.,5.5511151231258E-15));
#1325=DIRECTION('center_axis',(-1.,0.,0.));
#1326=DIRECTION('ref_axis',(0.,-1.,5.5511151231258E-15));
#1327=DIRECTION('center_axis',(1.,0.,0.));
#1328=DIRECTION('ref_axis',(0.,-1.,5.5511151231258E-15));
#1329=DIRECTION('',(1.,0.,0.));
#1330=DIRECTION('center_axis',(0.,-1.,4.39431494151284E-15));
#1331=DIRECTION('ref_axis',(0.,-4.39431494151284E-15,-1.));
#1332=DIRECTION('',(0.,4.39431494151284E-15,1.));
#1333=DIRECTION('',(0.,-4.39431494151284E-15,-1.));
#1334=DIRECTION('center_axis',(1.,0.,0.));
#1335=DIRECTION('ref_axis',(0.,0.,-1.));
#1336=DIRECTION('center_axis',(1.,0.,0.));
#1337=DIRECTION('ref_axis',(0.,0.,-1.));
#1338=DIRECTION('center_axis',(0.,1.,0.));
#1339=DIRECTION('ref_axis',(0.707106781186549,0.,-0.707106781186546));
#1340=DIRECTION('center_axis',(0.,-1.,-2.41352831440251E-16));
#1341=DIRECTION('ref_axis',(0.707106781186549,0.,-0.707106781186546));
#1342=DIRECTION('',(0.,-1.,0.));
#1343=DIRECTION('center_axis',(0.,1.,0.));
#1344=DIRECTION('ref_axis',(0.707106781186549,0.,-0.707106781186546));
#1345=DIRECTION('',(0.,1.,0.));
#1346=DIRECTION('center_axis',(0.,-1.,0.));
#1347=DIRECTION('ref_axis',(0.,0.,-1.));
#1348=DIRECTION('',(0.,0.,-1.));
#1349=DIRECTION('center_axis',(0.,1.,0.));
#1350=DIRECTION('ref_axis',(0.707106781186549,0.,0.707106781186546));
#1351=DIRECTION('',(1.,0.,0.));
#1352=DIRECTION('',(0.,0.,1.));
#1353=DIRECTION('',(1.,0.,0.));
#1354=DIRECTION('center_axis',(1.,0.,0.));
#1355=DIRECTION('ref_axis',(0.,0.,-1.));
#1356=DIRECTION('',(0.,-2.41352831440251E-16,1.));
#1357=DIRECTION('',(0.,1.,4.44089209850063E-16));
#1358=DIRECTION('center_axis',(0.,-1.,-4.44089209850063E-16));
#1359=DIRECTION('ref_axis',(0.707106781186549,0.,0.707106781186546));
#1360=DIRECTION('center_axis',(0.,-1.,-2.41352831440251E-16));
#1361=DIRECTION('ref_axis',(0.707106781186549,0.,0.707106781186546));
#1362=DIRECTION('',(0.,-1.,-4.44089209850063E-16));
#1363=DIRECTION('center_axis',(0.,-4.44089209850063E-16,1.));
#1364=DIRECTION('ref_axis',(0.,-1.,-4.44089209850063E-16));
#1365=DIRECTION('',(1.,0.,0.));
#1366=DIRECTION('',(0.,1.,4.44089209850063E-16));
#1367=DIRECTION('center_axis',(0.,1.,2.41352831440251E-16));
#1368=DIRECTION('ref_axis',(0.,-2.41352831440251E-16,1.));
#1369=DIRECTION('',(1.,0.,0.));
#1370=DIRECTION('',(0.,2.41352831440251E-16,-1.));
#1371=DIRECTION('center_axis',(0.,0.,-1.));
#1372=DIRECTION('ref_axis',(0.,1.,0.));
#1373=DIRECTION('',(0.,-1.,0.));
#1374=DIRECTION('center_axis',(1.,0.,0.));
#1375=DIRECTION('ref_axis',(0.,0.,-1.));
#1376=DIRECTION('center_axis',(0.,-1.,0.));
#1377=DIRECTION('ref_axis',(0.707106781186549,0.,0.707106781186546));
#1378=DIRECTION('center_axis',(0.,1.,0.));
#1379=DIRECTION('ref_axis',(0.707106781186549,0.,0.707106781186546));
#1380=DIRECTION('',(0.,1.,0.));
#1381=DIRECTION('center_axis',(0.,-1.,0.));
#1382=DIRECTION('ref_axis',(0.707106781186549,0.,0.707106781186546));
#1383=DIRECTION('',(0.,-1.,0.));
#1384=DIRECTION('center_axis',(1.,0.,0.));
#1385=DIRECTION('ref_axis',(0.,0.,-1.));
#1386=DIRECTION('',(0.,0.,-1.));
#1387=DIRECTION('',(0.,-1.,0.));
#1388=DIRECTION('',(0.,0.,1.));
#1389=DIRECTION('center_axis',(0.,-1.,0.));
#1390=DIRECTION('ref_axis',(0.,0.,-1.));
#1391=DIRECTION('',(1.,0.,0.));
#1392=DIRECTION('',(0.,0.,-1.));
#1393=DIRECTION('',(1.,0.,0.));
#1394=DIRECTION('center_axis',(0.,1.,0.));
#1395=DIRECTION('ref_axis',(0.707106781186549,0.,-0.707106781186546));
#1396=DIRECTION('center_axis',(0.,1.,0.));
#1397=DIRECTION('ref_axis',(0.707106781186549,0.,-0.707106781186546));
#1398=DIRECTION('center_axis',(0.,-1.,0.));
#1399=DIRECTION('ref_axis',(0.707106781186549,0.,-0.707106781186546));
#1400=DIRECTION('',(0.,1.,0.));
#1401=DIRECTION('center_axis',(0.,1.,0.));
#1402=DIRECTION('ref_axis',(0.,0.,1.));
#1403=DIRECTION('',(1.,0.,0.));
#1404=DIRECTION('',(0.,0.,1.));
#1405=DIRECTION('',(1.,0.,0.));
#1406=DIRECTION('center_axis',(0.,0.,-1.));
#1407=DIRECTION('ref_axis',(0.,1.,0.));
#1408=DIRECTION('',(0.,1.,0.));
#1409=DIRECTION('center_axis',(0.,0.,1.));
#1410=DIRECTION('ref_axis',(0.,-1.,0.));
#1411=DIRECTION('',(0.,-1.,0.));
#1412=DIRECTION('center_axis',(1.,0.,0.));
#1413=DIRECTION('ref_axis',(0.,0.,-1.));
#1414=CARTESIAN_POINT('',(0.,0.,0.));
#1415=CARTESIAN_POINT('Origin',(-32.7,1.55,1.18321595661992));
#1416=CARTESIAN_POINT('',(-32.7,1.55,1.18321595661992));
#1417=CARTESIAN_POINT('',(-32.7,1.55,-1.18321595661992));
#1418=CARTESIAN_POINT('',(-32.7,1.55,0.591607978309961));
#1419=CARTESIAN_POINT('',(-24.7,1.55,1.18321595661992));
#1420=CARTESIAN_POINT('',(-20.7,1.55,1.18321595661992));
#1421=CARTESIAN_POINT('',(-24.7,1.55,-1.18321595661992));
#1422=CARTESIAN_POINT('',(-24.7,1.55,0.));
#1423=CARTESIAN_POINT('',(-20.7,1.55,-1.18321595661992));
#1424=CARTESIAN_POINT('Origin',(-24.7,1.75,0.));
#1425=CARTESIAN_POINT('Origin',(-24.7,0.,0.));
#1426=CARTESIAN_POINT('Origin',(-32.7,0.,0.));
#1427=CARTESIAN_POINT('',(-32.7,-2.38806125833734E-16,-1.95));
#1428=CARTESIAN_POINT('Origin',(-32.7,0.,0.));
#1429=CARTESIAN_POINT('Origin',(-32.7,0.,0.));
#1430=CARTESIAN_POINT('Origin',(-20.7,-1.88737914186277E-15,-8.5));
#1431=CARTESIAN_POINT('',(-20.7,-2.15067820367945E-15,-10.65));
#1432=CARTESIAN_POINT('Origin',(-20.7,-1.88737914186277E-15,-8.5));
#1433=CARTESIAN_POINT('',(-18.7,-2.15067820367945E-15,-10.65));
#1434=CARTESIAN_POINT('',(-20.7,-1.62408008004609E-15,-10.65));
#1435=CARTESIAN_POINT('Origin',(-18.7,-1.88737914186277E-15,-8.5));
#1436=CARTESIAN_POINT('Origin',(-18.7,-1.94289029309402E-15,-8.5));
#1437=CARTESIAN_POINT('',(-18.7,-2.04045999175619E-15,-9.75));
#1438=CARTESIAN_POINT('Origin',(-18.7,-1.88737914186277E-15,-8.5));
#1439=CARTESIAN_POINT('Origin',(-20.7,-1.88737914186277E-15,8.5));
#1440=CARTESIAN_POINT('',(-20.7,-2.15067820367945E-15,6.35));
#1441=CARTESIAN_POINT('Origin',(-20.7,-1.88737914186277E-15,8.5));
#1442=CARTESIAN_POINT('',(-18.7,-2.15067820367945E-15,6.35));
#1443=CARTESIAN_POINT('',(-20.7,-1.62408008004609E-15,6.35));
#1444=CARTESIAN_POINT('Origin',(-18.7,-1.88737914186277E-15,8.5));
#1445=CARTESIAN_POINT('Origin',(-18.7,-1.94289029309402E-15,8.5));
#1446=CARTESIAN_POINT('',(-18.7,-2.04045999175619E-15,7.25));
#1447=CARTESIAN_POINT('Origin',(-18.7,-1.88737914186277E-15,8.5));
#1448=CARTESIAN_POINT('Origin',(-20.7,-1.88737914186277E-15,-8.5));
#1449=CARTESIAN_POINT('',(-16.7,-2.04045999175619E-15,-9.75));
#1450=CARTESIAN_POINT('',(-20.7,-1.73429829196935E-15,-9.75));
#1451=CARTESIAN_POINT('Origin',(-16.7,-1.88737914186277E-15,-8.5));
#1452=CARTESIAN_POINT('Origin',(-16.7,-1.94289029309402E-15,-8.5));
#1453=CARTESIAN_POINT('Origin',(-20.7,-1.88737914186277E-15,8.5));
#1454=CARTESIAN_POINT('',(-16.7,-2.04045999175619E-15,7.25));
#1455=CARTESIAN_POINT('',(-20.7,-1.73429829196935E-15,7.25));
#1456=CARTESIAN_POINT('Origin',(-16.7,-1.88737914186277E-15,8.5));
#1457=CARTESIAN_POINT('Origin',(-16.7,-1.94289029309402E-15,8.5));
#1458=CARTESIAN_POINT('Origin',(-20.7,8.5,0.));
#1459=CARTESIAN_POINT('',(-20.7,8.5,-1.25));
#1460=CARTESIAN_POINT('Origin',(-20.7,8.5,0.));
#1461=CARTESIAN_POINT('',(-16.7,8.5,-1.25));
#1462=CARTESIAN_POINT('',(-20.7,8.5,-1.25));
#1463=CARTESIAN_POINT('Origin',(-16.7,8.5,0.));
#1464=CARTESIAN_POINT('Origin',(-16.7,8.5,0.));
#1465=CARTESIAN_POINT('Origin',(-20.7,-8.5,-1.04094977927525E-15));
#1466=CARTESIAN_POINT('',(-20.7,-8.5,-1.25));
#1467=CARTESIAN_POINT('Origin',(-20.7,-8.5,-1.04094977927525E-15));
#1468=CARTESIAN_POINT('',(-16.7,-8.5,-1.25));
#1469=CARTESIAN_POINT('',(-20.7,-8.5,-1.25));
#1470=CARTESIAN_POINT('Origin',(-16.7,-8.5,-1.04094977927525E-15));
#1471=CARTESIAN_POINT('Origin',(-16.7,-8.5,-1.11022302462516E-15));
#1472=CARTESIAN_POINT('Origin',(-20.7,0.,0.));
#1473=CARTESIAN_POINT('',(-20.7,-1.50631556295125E-15,12.3));
#1474=CARTESIAN_POINT('Origin',(-20.7,0.,0.));
#1475=CARTESIAN_POINT('',(-20.7,-4.22503145705837E-16,-3.45));
#1476=CARTESIAN_POINT('Origin',(-20.7,0.,0.));
#1477=CARTESIAN_POINT('Origin',(0.,0.,0.));
#1478=CARTESIAN_POINT('',(0.,-1.50631556295125E-15,12.3));
#1479=CARTESIAN_POINT('',(0.,1.50631556295125E-15,12.3));
#1480=CARTESIAN_POINT('Origin',(0.,0.,0.));
#1481=CARTESIAN_POINT('Origin',(0.,0.,0.));
#1482=CARTESIAN_POINT('Origin',(-22.7,0.,0.));
#1483=CARTESIAN_POINT('',(-22.7,-4.22503145705837E-16,-3.45));
#1484=CARTESIAN_POINT('Origin',(-22.7,0.,0.));
#1485=CARTESIAN_POINT('',(-22.7,2.38806125833734E-16,-1.95));
#1486=CARTESIAN_POINT('Origin',(-22.7,0.,0.));
#1487=CARTESIAN_POINT('Origin',(-20.7,0.,0.));
#1488=CARTESIAN_POINT('',(-20.7,-4.22503145705837E-16,-3.45));
#1489=CARTESIAN_POINT('Origin',(-20.7,0.,0.));
#1490=CARTESIAN_POINT('',(-20.7,-2.38806125833734E-16,-1.95));
#1491=CARTESIAN_POINT('Origin',(0.,0.,0.));
#1492=CARTESIAN_POINT('',(0.,-1.48794586096403E-15,12.15));
#1493=CARTESIAN_POINT('Origin',(0.,0.,0.));
#1494=CARTESIAN_POINT('Origin',(23.72,4.25,4.50000000000001));
#1495=CARTESIAN_POINT('',(23.72,11.6349688439634,3.50000000000001));
#1496=CARTESIAN_POINT('',(23.72,-11.6349688439634,3.50000000000001));
#1497=CARTESIAN_POINT('',(23.72,4.25,3.50000000000001));
#1498=CARTESIAN_POINT('',(23.72,11.6349688439634,-3.49999999999999));
#1499=CARTESIAN_POINT('Origin',(23.72,0.,0.));
#1500=CARTESIAN_POINT('',(23.72,-11.6349688439634,-3.49999999999999));
#1501=CARTESIAN_POINT('',(23.72,4.25,-3.49999999999999));
#1502=CARTESIAN_POINT('Origin',(23.72,0.,0.));
#1503=CARTESIAN_POINT('Origin',(20.72,4.25,-4.49999999999999));
#1504=CARTESIAN_POINT('',(20.72,11.6349688439634,-3.49999999999999));
#1505=CARTESIAN_POINT('',(20.72,-11.6349688439634,-3.49999999999999));
#1506=CARTESIAN_POINT('',(20.72,4.25,-3.49999999999999));
#1507=CARTESIAN_POINT('',(20.72,11.6349688439634,3.50000000000001));
#1508=CARTESIAN_POINT('Origin',(20.72,0.,0.));
#1509=CARTESIAN_POINT('',(20.72,-11.6349688439634,3.50000000000001));
#1510=CARTESIAN_POINT('',(20.72,4.25,3.50000000000001));
#1511=CARTESIAN_POINT('Origin',(20.72,0.,0.));
#1512=CARTESIAN_POINT('Origin',(21.72,4.25,3.50000000000001));
#1513=CARTESIAN_POINT('',(21.72,-11.285942583586,4.50000000000001));
#1514=CARTESIAN_POINT('Ctrl Pts',(21.72,-11.285942583586,4.50000000000001));
#1515=CARTESIAN_POINT('Ctrl Pts',(21.5944798305134,-11.285942583586,4.50000000000001));
#1516=CARTESIAN_POINT('Ctrl Pts',(21.4613491288723,-11.2960494456698,4.47489157210263));
#1517=CARTESIAN_POINT('Ctrl Pts',(21.2179628089476,-11.3351896752507,4.37479858358742));
#1518=CARTESIAN_POINT('Ctrl Pts',(21.1076550344862,-11.3640563344404,4.29987574236831));
#1519=CARTESIAN_POINT('Ctrl Pts',(20.9288222819552,-11.4287510025517,4.1249662002456));
#1520=CARTESIAN_POINT('Ctrl Pts',(20.8500900664468,-11.4694784031594,4.01133541652176));
#1521=CARTESIAN_POINT('Ctrl Pts',(20.7456752697854,-11.5535038413462,3.76248530235132));
#1522=CARTESIAN_POINT('Ctrl Pts',(20.72,-11.5966966448666,3.62722738402327));
#1523=CARTESIAN_POINT('Ctrl Pts',(20.72,-11.6349688439634,3.50000000000001));
#1524=CARTESIAN_POINT('',(21.72,11.285942583586,4.50000000000001));
#1525=CARTESIAN_POINT('Ctrl Pts',(20.72,11.6349688439634,3.50000000000001));
#1526=CARTESIAN_POINT('Ctrl Pts',(20.72,11.5966966448666,3.62722738402327));
#1527=CARTESIAN_POINT('Ctrl Pts',(20.7456752697854,11.5535038413462,3.76248530235132));
#1528=CARTESIAN_POINT('Ctrl Pts',(20.8500900664468,11.4694784031594,4.01133541652176));
#1529=CARTESIAN_POINT('Ctrl Pts',(20.9288222819552,11.4287510025517,4.1249662002456));
#1530=CARTESIAN_POINT('Ctrl Pts',(21.1076550344862,11.3640563344404,4.29987574236831));
#1531=CARTESIAN_POINT('Ctrl Pts',(21.2179628089476,11.3351896752507,4.37479858358742));
#1532=CARTESIAN_POINT('Ctrl Pts',(21.4613491288723,11.2960494456698,4.47489157210263));
#1533=CARTESIAN_POINT('Ctrl Pts',(21.5944798305134,11.285942583586,4.50000000000001));
#1534=CARTESIAN_POINT('Ctrl Pts',(21.72,11.285942583586,4.50000000000001));
#1535=CARTESIAN_POINT('',(21.72,4.25,4.50000000000001));
#1536=CARTESIAN_POINT('Origin',(21.72,4.25,-3.49999999999999));
#1537=CARTESIAN_POINT('',(21.72,-11.285942583586,-4.49999999999999));
#1538=CARTESIAN_POINT('Ctrl Pts',(20.72,-11.6349688439634,-3.49999999999999));
#1539=CARTESIAN_POINT('Ctrl Pts',(20.72,-11.5966966448666,-3.62722738402326));
#1540=CARTESIAN_POINT('Ctrl Pts',(20.7456752697854,-11.5535038413462,-3.76248530235131));
#1541=CARTESIAN_POINT('Ctrl Pts',(20.8500900664468,-11.4694784031594,-4.01133541652175));
#1542=CARTESIAN_POINT('Ctrl Pts',(20.9288222819552,-11.4287510025517,-4.12496620024559));
#1543=CARTESIAN_POINT('Ctrl Pts',(21.1076550344862,-11.3640563344404,-4.2998757423683));
#1544=CARTESIAN_POINT('Ctrl Pts',(21.2179628089476,-11.3351896752507,-4.3747985835874));
#1545=CARTESIAN_POINT('Ctrl Pts',(21.4613491288723,-11.2960494456698,-4.47489157210262));
#1546=CARTESIAN_POINT('Ctrl Pts',(21.5944798305134,-11.285942583586,-4.49999999999999));
#1547=CARTESIAN_POINT('Ctrl Pts',(21.72,-11.285942583586,-4.49999999999999));
#1548=CARTESIAN_POINT('',(21.72,11.285942583586,-4.49999999999999));
#1549=CARTESIAN_POINT('',(21.72,4.25,-4.49999999999999));
#1550=CARTESIAN_POINT('Ctrl Pts',(21.72,11.285942583586,-4.49999999999999));
#1551=CARTESIAN_POINT('Ctrl Pts',(21.5944798305134,11.285942583586,-4.49999999999999));
#1552=CARTESIAN_POINT('Ctrl Pts',(21.4613491288723,11.2960494456698,-4.47489157210262));
#1553=CARTESIAN_POINT('Ctrl Pts',(21.2179628089476,11.3351896752507,-4.3747985835874));
#1554=CARTESIAN_POINT('Ctrl Pts',(21.1076550344862,11.3640563344404,-4.2998757423683));
#1555=CARTESIAN_POINT('Ctrl Pts',(20.9288222819552,11.4287510025517,-4.12496620024559));
#1556=CARTESIAN_POINT('Ctrl Pts',(20.8500900664468,11.4694784031594,-4.01133541652175));
#1557=CARTESIAN_POINT('Ctrl Pts',(20.7456752697854,11.5535038413462,-3.76248530235131));
#1558=CARTESIAN_POINT('Ctrl Pts',(20.72,11.5966966448666,-3.62722738402326));
#1559=CARTESIAN_POINT('Ctrl Pts',(20.72,11.6349688439634,-3.49999999999999));
#1560=CARTESIAN_POINT('Origin',(23.72,4.25,-4.49999999999999));
#1561=CARTESIAN_POINT('',(22.72,11.285942583586,-4.49999999999999));
#1562=CARTESIAN_POINT('',(22.72,-11.285942583586,-4.49999999999999));
#1563=CARTESIAN_POINT('',(22.72,4.25,-4.49999999999999));
#1564=CARTESIAN_POINT('',(0.,11.285942583586,-4.49999999999999));
#1565=CARTESIAN_POINT('',(0.,-11.285942583586,-4.49999999999999));
#1566=CARTESIAN_POINT('Origin',(22.72,4.25,-3.49999999999999));
#1567=CARTESIAN_POINT('Ctrl Pts',(23.72,11.6349688439634,-3.49999999999999));
#1568=CARTESIAN_POINT('Ctrl Pts',(23.72,11.5966966448666,-3.62722738402326));
#1569=CARTESIAN_POINT('Ctrl Pts',(23.6943247302146,11.5535038413462,-3.7624853023513));
#1570=CARTESIAN_POINT('Ctrl Pts',(23.5899099335532,11.4694784031594,-4.01133541652174));
#1571=CARTESIAN_POINT('Ctrl Pts',(23.5111777180448,11.4287510025517,-4.12496620024559));
#1572=CARTESIAN_POINT('Ctrl Pts',(23.3323449655138,11.3640563344404,-4.2998757423683));
#1573=CARTESIAN_POINT('Ctrl Pts',(23.2220371910524,11.3351896752507,-4.37479858358741));
#1574=CARTESIAN_POINT('Ctrl Pts',(22.9786508711277,11.2960494456698,-4.47489157210262));
#1575=CARTESIAN_POINT('Ctrl Pts',(22.8455201694866,11.285942583586,-4.49999999999999));
#1576=CARTESIAN_POINT('Ctrl Pts',(22.72,11.285942583586,-4.49999999999999));
#1577=CARTESIAN_POINT('Ctrl Pts',(22.72,-11.285942583586,-4.49999999999999));
#1578=CARTESIAN_POINT('Ctrl Pts',(22.8455201694866,-11.285942583586,-4.49999999999999));
#1579=CARTESIAN_POINT('Ctrl Pts',(22.9786508711277,-11.2960494456698,-4.47489157210262));
#1580=CARTESIAN_POINT('Ctrl Pts',(23.2220371910524,-11.3351896752507,-4.37479858358741));
#1581=CARTESIAN_POINT('Ctrl Pts',(23.3323449655138,-11.3640563344404,-4.2998757423683));
#1582=CARTESIAN_POINT('Ctrl Pts',(23.5111777180448,-11.4287510025517,-4.12496620024559));
#1583=CARTESIAN_POINT('Ctrl Pts',(23.5899099335532,-11.4694784031594,-4.01133541652174));
#1584=CARTESIAN_POINT('Ctrl Pts',(23.6943247302146,-11.5535038413462,-3.7624853023513));
#1585=CARTESIAN_POINT('Ctrl Pts',(23.72,-11.5966966448666,-3.62722738402326));
#1586=CARTESIAN_POINT('Ctrl Pts',(23.72,-11.6349688439634,-3.49999999999999));
#1587=CARTESIAN_POINT('Origin',(20.72,4.25,4.50000000000001));
#1588=CARTESIAN_POINT('',(22.72,-11.285942583586,4.50000000000001));
#1589=CARTESIAN_POINT('',(22.72,11.285942583586,4.50000000000001));
#1590=CARTESIAN_POINT('',(22.72,4.25,4.50000000000001));
#1591=CARTESIAN_POINT('',(0.,-11.285942583586,4.50000000000001));
#1592=CARTESIAN_POINT('',(0.,11.285942583586,4.50000000000001));
#1593=CARTESIAN_POINT('Origin',(22.72,4.25,3.50000000000001));
#1594=CARTESIAN_POINT('Ctrl Pts',(23.72,-11.6349688439634,3.5));
#1595=CARTESIAN_POINT('Ctrl Pts',(23.72,-11.5966966448666,3.62722738402327));
#1596=CARTESIAN_POINT('Ctrl Pts',(23.6943247302146,-11.5535038413462,3.76248530235132));
#1597=CARTESIAN_POINT('Ctrl Pts',(23.5899099335532,-11.4694784031594,4.01133541652176));
#1598=CARTESIAN_POINT('Ctrl Pts',(23.5111777180448,-11.4287510025517,4.1249662002456));
#1599=CARTESIAN_POINT('Ctrl Pts',(23.3323449655138,-11.3640563344404,4.29987574236831));
#1600=CARTESIAN_POINT('Ctrl Pts',(23.2220371910524,-11.3351896752507,4.37479858358742));
#1601=CARTESIAN_POINT('Ctrl Pts',(22.9786508711277,-11.2960494456698,4.47489157210264));
#1602=CARTESIAN_POINT('Ctrl Pts',(22.8455201694866,-11.285942583586,4.50000000000001));
#1603=CARTESIAN_POINT('Ctrl Pts',(22.72,-11.285942583586,4.50000000000001));
#1604=CARTESIAN_POINT('Ctrl Pts',(22.72,11.285942583586,4.50000000000001));
#1605=CARTESIAN_POINT('Ctrl Pts',(22.8455201694866,11.285942583586,4.50000000000001));
#1606=CARTESIAN_POINT('Ctrl Pts',(22.9786508711277,11.2960494456698,4.47489157210264));
#1607=CARTESIAN_POINT('Ctrl Pts',(23.2220371910524,11.3351896752507,4.37479858358742));
#1608=CARTESIAN_POINT('Ctrl Pts',(23.3323449655138,11.3640563344404,4.29987574236831));
#1609=CARTESIAN_POINT('Ctrl Pts',(23.5111777180448,11.4287510025517,4.1249662002456));
#1610=CARTESIAN_POINT('Ctrl Pts',(23.5899099335532,11.4694784031594,4.01133541652176));
#1611=CARTESIAN_POINT('Ctrl Pts',(23.6943247302146,11.5535038413462,3.76248530235132));
#1612=CARTESIAN_POINT('Ctrl Pts',(23.72,11.5966966448666,3.62722738402327));
#1613=CARTESIAN_POINT('Ctrl Pts',(23.72,11.6349688439634,3.50000000000001));
#1614=CARTESIAN_POINT('Origin',(0.,0.,0.));
#1615=CARTESIAN_POINT('',(27.3,-1.48794586096403E-15,12.15));
#1616=CARTESIAN_POINT('Origin',(27.3,0.,0.));
#1617=CARTESIAN_POINT('',(0.,-1.48794586096403E-15,12.15));
#1618=CARTESIAN_POINT('Origin',(27.3,0.,0.));
#1619=CARTESIAN_POINT('Origin',(27.3,0.,0.));
#1620=CARTESIAN_POINT('',(27.3,-1.48794586096403E-15,12.15));
#1621=CARTESIAN_POINT('Origin',(27.3,0.,0.));
#1622=CARTESIAN_POINT('Origin',(0.,0.,0.));
#1623=CARTESIAN_POINT('',(28.8,-1.48794586096403E-15,12.15));
#1624=CARTESIAN_POINT('Origin',(28.8,0.,0.));
#1625=CARTESIAN_POINT('',(0.,-1.48794586096403E-15,12.15));
#1626=CARTESIAN_POINT('Origin',(33.8,0.,0.));
#1627=CARTESIAN_POINT('',(33.8,-1.83697019872103E-16,1.5));
#1628=CARTESIAN_POINT('Origin',(33.8,0.,0.));
#1629=CARTESIAN_POINT('Origin',(28.8,0.,0.));
#1630=CARTESIAN_POINT('',(35.8,1.83697019872103E-16,1.5));
#1631=CARTESIAN_POINT('',(28.8,-1.83697019872103E-16,1.5));
#1632=CARTESIAN_POINT('Origin',(35.8,0.,0.));
#1633=CARTESIAN_POINT('Origin',(28.8,0.,0.));
#1634=CARTESIAN_POINT('',(35.8,-4.89858719658941E-16,4.));
#1635=CARTESIAN_POINT('Origin',(35.8,0.,0.));
#1636=CARTESIAN_POINT('',(33.8,-4.89858719658941E-16,4.));
#1637=CARTESIAN_POINT('',(28.8,-4.89858719658941E-16,4.));
#1638=CARTESIAN_POINT('Origin',(33.8,0.,0.));
#1639=CARTESIAN_POINT('Origin',(35.8,0.,0.));
#1640=CARTESIAN_POINT('Origin',(28.8,-3.24999999999995,7.20052081449671));
#1641=CARTESIAN_POINT('',(28.8,-4.24999999999994,7.20052081449671));
#1642=CARTESIAN_POINT('',(28.8,-3.66139240506323,8.11197914544566));
#1643=CARTESIAN_POINT('Origin',(28.8,-3.24999999999995,7.20052081449671));
#1644=CARTESIAN_POINT('',(33.8,-4.24999999999994,7.20052081449671));
#1645=CARTESIAN_POINT('',(28.8,-4.24999999999994,7.20052081449671));
#1646=CARTESIAN_POINT('',(33.8,-3.66139240506323,8.11197914544566));
#1647=CARTESIAN_POINT('Origin',(33.8,-3.24999999999995,7.20052081449671));
#1648=CARTESIAN_POINT('',(28.8,-3.66139240506323,8.11197914544566));
#1649=CARTESIAN_POINT('Origin',(28.8,0.,0.));
#1650=CARTESIAN_POINT('',(28.8,3.66139240506329,8.11197914544563));
#1651=CARTESIAN_POINT('Origin',(28.8,0.,0.));
#1652=CARTESIAN_POINT('',(33.8,3.66139240506329,8.11197914544563));
#1653=CARTESIAN_POINT('Origin',(33.8,0.,0.));
#1654=CARTESIAN_POINT('',(28.8,3.66139240506329,8.11197914544563));
#1655=CARTESIAN_POINT('Origin',(28.8,3.25,7.20052081449669));
#1656=CARTESIAN_POINT('',(28.8,4.25,7.20052081449668));
#1657=CARTESIAN_POINT('Origin',(28.8,3.25,7.20052081449669));
#1658=CARTESIAN_POINT('',(33.8,4.25,7.20052081449668));
#1659=CARTESIAN_POINT('Origin',(33.8,3.25,7.20052081449669));
#1660=CARTESIAN_POINT('',(28.8,4.25,7.20052081449668));
#1661=CARTESIAN_POINT('Origin',(28.8,4.25,-7.20052081449667));
#1662=CARTESIAN_POINT('',(28.8,4.25,-7.20052081449667));
#1663=CARTESIAN_POINT('',(28.8,4.25,-3.60026040724834));
#1664=CARTESIAN_POINT('',(33.8,4.25,-7.20052081449667));
#1665=CARTESIAN_POINT('',(33.8,4.25,0.));
#1666=CARTESIAN_POINT('',(28.8,4.25,-7.20052081449667));
#1667=CARTESIAN_POINT('Origin',(28.8,3.25000000000001,-7.20052081449667));
#1668=CARTESIAN_POINT('',(28.8,3.66139240506329,-8.11197914544562));
#1669=CARTESIAN_POINT('Origin',(28.8,3.25000000000001,-7.20052081449667));
#1670=CARTESIAN_POINT('',(33.8,3.66139240506329,-8.11197914544562));
#1671=CARTESIAN_POINT('Origin',(33.8,3.25000000000001,-7.20052081449667));
#1672=CARTESIAN_POINT('',(28.8,3.66139240506329,-8.11197914544562));
#1673=CARTESIAN_POINT('Origin',(28.8,0.,0.));
#1674=CARTESIAN_POINT('',(28.8,-3.6613924050633,-8.11197914544561));
#1675=CARTESIAN_POINT('Origin',(28.8,0.,0.));
#1676=CARTESIAN_POINT('',(33.8,-3.6613924050633,-8.11197914544561));
#1677=CARTESIAN_POINT('Origin',(33.8,0.,0.));
#1678=CARTESIAN_POINT('',(28.8,-3.6613924050633,-8.11197914544561));
#1679=CARTESIAN_POINT('Origin',(28.8,-3.25000000000001,-7.20052081449667));
#1680=CARTESIAN_POINT('',(28.8,-4.25000000000001,-7.20052081449666));
#1681=CARTESIAN_POINT('Origin',(28.8,-3.25000000000001,-7.20052081449667));
#1682=CARTESIAN_POINT('',(33.8,-4.25000000000001,-7.20052081449666));
#1683=CARTESIAN_POINT('Origin',(33.8,-3.25000000000001,-7.20052081449667));
#1684=CARTESIAN_POINT('',(28.8,-4.25000000000001,-7.20052081449666));
#1685=CARTESIAN_POINT('Origin',(28.8,-4.24999999999995,7.20052081449671));
#1686=CARTESIAN_POINT('',(28.8,-4.24999999999996,3.60026040724837));
#1687=CARTESIAN_POINT('',(33.8,-4.24999999999998,1.88737914186277E-14));
#1688=CARTESIAN_POINT('Origin',(33.8,-4.44089209850063E-15,5.55111512312578E-15));
#1689=CARTESIAN_POINT('Origin',(28.8,0.,0.));
#1690=CARTESIAN_POINT('Origin',(30.8,-8.00000000000001,-1.29999999999999));
#1691=CARTESIAN_POINT('',(30.8,-4.25000000000001,-2.29999999999999));
#1692=CARTESIAN_POINT('',(31.8,-4.25000000000001,-1.29999999999999));
#1693=CARTESIAN_POINT('Origin',(30.8,-4.25000000000001,-1.29999999999999));
#1694=CARTESIAN_POINT('',(31.8,-9.25000000000001,-1.29999999999999));
#1695=CARTESIAN_POINT('',(31.8,-8.00000000000001,-1.29999999999999));
#1696=CARTESIAN_POINT('',(30.8,-9.25000000000001,-2.29999999999999));
#1697=CARTESIAN_POINT('Origin',(30.8,-9.25000000000001,-1.29999999999999));
#1698=CARTESIAN_POINT('',(30.8,-8.00000000000001,-2.29999999999999));
#1699=CARTESIAN_POINT('Origin',(28.8,-9.25000000000001,2.3));
#1700=CARTESIAN_POINT('',(31.8,-9.25000000000001,1.3));
#1701=CARTESIAN_POINT('',(31.8,-9.25000000000001,-2.29999999999999));
#1702=CARTESIAN_POINT('',(30.8,-9.25000000000001,2.3));
#1703=CARTESIAN_POINT('Origin',(30.8,-9.25000000000001,1.3));
#1704=CARTESIAN_POINT('',(28.8,-9.25000000000001,2.3));
#1705=CARTESIAN_POINT('',(28.8,-9.25000000000001,2.3));
#1706=CARTESIAN_POINT('',(28.8,-9.25000000000001,-2.29999999999999));
#1707=CARTESIAN_POINT('',(28.8,-9.25000000000001,-2.29999999999999));
#1708=CARTESIAN_POINT('',(28.8,-9.25000000000001,-2.29999999999999));
#1709=CARTESIAN_POINT('Origin',(31.8,-6.75000000000001,6.10622663543836E-15));
#1710=CARTESIAN_POINT('',(31.8,-4.25000000000001,1.30000000000001));
#1711=CARTESIAN_POINT('',(31.8,-4.25000000000001,2.30000000000001));
#1712=CARTESIAN_POINT('',(31.8,-5.50000000000001,1.30000000000001));
#1713=CARTESIAN_POINT('Origin',(30.8,-5.50000000000001,1.30000000000001));
#1714=CARTESIAN_POINT('',(30.8,-4.25000000000001,2.30000000000001));
#1715=CARTESIAN_POINT('Origin',(30.8,-4.25000000000001,1.30000000000001));
#1716=CARTESIAN_POINT('',(30.8,-5.50000000000001,2.30000000000001));
#1717=CARTESIAN_POINT('Origin',(28.8,-4.25000000000001,2.30000000000001));
#1718=CARTESIAN_POINT('',(28.8,-4.25000000000001,2.30000000000001));
#1719=CARTESIAN_POINT('',(28.8,-4.25000000000001,2.30000000000001));
#1720=CARTESIAN_POINT('',(28.8,-9.25000000000001,2.3));
#1721=CARTESIAN_POINT('Origin',(28.8,-4.25000000000001,-2.29999999999999));
#1722=CARTESIAN_POINT('',(28.8,-4.25000000000001,-2.29999999999999));
#1723=CARTESIAN_POINT('',(28.8,-4.25000000000001,-2.29999999999999));
#1724=CARTESIAN_POINT('',(28.8,-4.25000000000001,2.30000000000001));
#1725=CARTESIAN_POINT('Origin',(28.8,-9.25000000000001,-2.29999999999999));
#1726=CARTESIAN_POINT('',(28.8,-4.25000000000001,-2.29999999999999));
#1727=CARTESIAN_POINT('Origin',(28.8,-6.75000000000001,6.10622663543836E-15));
#1728=CARTESIAN_POINT('Origin',(30.8,8.,1.30000000000001));
#1729=CARTESIAN_POINT('',(30.8,4.25,2.30000000000001));
#1730=CARTESIAN_POINT('',(31.8,4.25,1.30000000000001));
#1731=CARTESIAN_POINT('Origin',(30.8,4.25,1.30000000000001));
#1732=CARTESIAN_POINT('',(31.8,9.25,1.30000000000001));
#1733=CARTESIAN_POINT('',(31.8,8.,1.30000000000001));
#1734=CARTESIAN_POINT('',(30.8,9.25,2.30000000000001));
#1735=CARTESIAN_POINT('Origin',(30.8,9.25,1.30000000000001));
#1736=CARTESIAN_POINT('',(30.8,8.,2.30000000000001));
#1737=CARTESIAN_POINT('Origin',(31.8,6.75,6.10622663543836E-15));
#1738=CARTESIAN_POINT('',(31.8,4.25,-1.29999999999999));
#1739=CARTESIAN_POINT('',(31.8,4.25,2.30000000000001));
#1740=CARTESIAN_POINT('',(31.8,9.25,-1.29999999999999));
#1741=CARTESIAN_POINT('',(31.8,5.5,-1.29999999999999));
#1742=CARTESIAN_POINT('',(31.8,9.25,-2.29999999999999));
#1743=CARTESIAN_POINT('Origin',(28.8,4.25,2.30000000000001));
#1744=CARTESIAN_POINT('',(28.8,4.25,2.30000000000001));
#1745=CARTESIAN_POINT('',(28.8,4.25,2.30000000000001));
#1746=CARTESIAN_POINT('',(28.8,4.25,-2.29999999999999));
#1747=CARTESIAN_POINT('',(28.8,4.25,2.30000000000001));
#1748=CARTESIAN_POINT('',(30.8,4.25,-2.29999999999999));
#1749=CARTESIAN_POINT('',(28.8,4.25,-2.29999999999999));
#1750=CARTESIAN_POINT('Origin',(30.8,4.25,-1.29999999999999));
#1751=CARTESIAN_POINT('Origin',(30.8,5.5,-1.29999999999999));
#1752=CARTESIAN_POINT('',(30.8,9.25,-2.29999999999999));
#1753=CARTESIAN_POINT('Origin',(30.8,9.25,-1.29999999999999));
#1754=CARTESIAN_POINT('',(30.8,5.5,-2.29999999999999));
#1755=CARTESIAN_POINT('Origin',(28.8,9.25,-2.29999999999999));
#1756=CARTESIAN_POINT('',(28.8,9.25,-2.29999999999999));
#1757=CARTESIAN_POINT('',(28.8,9.25,-2.29999999999999));
#1758=CARTESIAN_POINT('',(28.8,9.25,2.30000000000001));
#1759=CARTESIAN_POINT('',(28.8,9.25,-2.29999999999999));
#1760=CARTESIAN_POINT('',(28.8,9.25,2.30000000000001));
#1761=CARTESIAN_POINT('Origin',(28.8,4.25,-2.29999999999999));
#1762=CARTESIAN_POINT('',(28.8,4.25,-2.29999999999999));
#1763=CARTESIAN_POINT('Origin',(28.8,9.25,2.30000000000001));
#1764=CARTESIAN_POINT('',(28.8,9.25,2.30000000000001));
#1765=CARTESIAN_POINT('Origin',(28.8,6.75,6.10622663543836E-15));
#1766=UNCERTAINTY_MEASURE_WITH_UNIT(LENGTH_MEASURE(0.01),#1770,
'DISTANCE_ACCURACY_VALUE',
'Maximum model space distance between geometric entities at asserted c
onnectivities');
#1767=UNCERTAINTY_MEASURE_WITH_UNIT(LENGTH_MEASURE(0.01),#1770,
'DISTANCE_ACCURACY_VALUE',
'Maximum model space distance between geometric entities at asserted c
onnectivities');
#1768=(
GEOMETRIC_REPRESENTATION_CONTEXT(3)
GLOBAL_UNCERTAINTY_ASSIGNED_CONTEXT((#1766))
GLOBAL_UNIT_ASSIGNED_CONTEXT((#1770,#1772,#1773))
REPRESENTATION_CONTEXT('','3D')
);
#1769=(
GEOMETRIC_REPRESENTATION_CONTEXT(3)
GLOBAL_UNCERTAINTY_ASSIGNED_CONTEXT((#1767))
GLOBAL_UNIT_ASSIGNED_CONTEXT((#1770,#1772,#1773))
REPRESENTATION_CONTEXT('','3D')
);
#1770=(
LENGTH_UNIT()
NAMED_UNIT(*)
SI_UNIT(.MILLI.,.METRE.)
);
#1771=(
LENGTH_UNIT()
NAMED_UNIT(*)
SI_UNIT($,.METRE.)
);
#1772=(
NAMED_UNIT(*)
PLANE_ANGLE_UNIT()
SI_UNIT($,.RADIAN.)
);
#1773=(
NAMED_UNIT(*)
SI_UNIT($,.STERADIAN.)
SOLID_ANGLE_UNIT()
);
#1774=SHAPE_DEFINITION_REPRESENTATION(#1775,#1776);
#1775=PRODUCT_DEFINITION_SHAPE('',$,#1778);
#1776=SHAPE_REPRESENTATION('',(#994),#1768);
#1777=PRODUCT_DEFINITION_CONTEXT('part definition',#1782,'design');
#1778=PRODUCT_DEFINITION('25GA motor','25GA motor v1',#1779,#1777);
#1779=PRODUCT_DEFINITION_FORMATION('',$,#1784);
#1780=PRODUCT_RELATED_PRODUCT_CATEGORY('25GA motor v1','25GA motor v1',
(#1784));
#1781=APPLICATION_PROTOCOL_DEFINITION('international standard',
'automotive_design',2009,#1782);
#1782=APPLICATION_CONTEXT(
'Core Data for Automotive Mechanical Design Process');
#1783=PRODUCT_CONTEXT('part definition',#1782,'mechanical');
#1784=PRODUCT('25GA motor','25GA motor v1',$,(#1783));
#1785=PRESENTATION_STYLE_ASSIGNMENT((#1789));
#1786=PRESENTATION_STYLE_ASSIGNMENT((#1790));
#1787=PRESENTATION_STYLE_ASSIGNMENT((#1791));
#1788=PRESENTATION_STYLE_ASSIGNMENT((#1792));
#1789=SURFACE_STYLE_USAGE(.BOTH.,#1793);
#1790=SURFACE_STYLE_USAGE(.BOTH.,#1794);
#1791=SURFACE_STYLE_USAGE(.BOTH.,#1795);
#1792=SURFACE_STYLE_USAGE(.BOTH.,#1796);
#1793=SURFACE_SIDE_STYLE('',(#1797));
#1794=SURFACE_SIDE_STYLE('',(#1798));
#1795=SURFACE_SIDE_STYLE('',(#1799));
#1796=SURFACE_SIDE_STYLE('',(#1800));
#1797=SURFACE_STYLE_FILL_AREA(#1801);
#1798=SURFACE_STYLE_FILL_AREA(#1802);
#1799=SURFACE_STYLE_FILL_AREA(#1803);
#1800=SURFACE_STYLE_FILL_AREA(#1804);
#1801=FILL_AREA_STYLE('Steel - Satin',(#1805));
#1802=FILL_AREA_STYLE('Coating - Black Oxide',(#1806));
#1803=FILL_AREA_STYLE('Aluminum - Anodized Glossy (Blue)',(#1807));
#1804=FILL_AREA_STYLE('Brass - Old',(#1808));
#1805=FILL_AREA_STYLE_COLOUR('Steel - Satin',#1809);
#1806=FILL_AREA_STYLE_COLOUR('Coating - Black Oxide',#1810);
#1807=FILL_AREA_STYLE_COLOUR('Aluminum - Anodized Glossy (Blue)',#1811);
#1808=FILL_AREA_STYLE_COLOUR('Brass - Old',#1812);
#1809=COLOUR_RGB('Steel - Satin',0.627450980392157,0.627450980392157,0.627450980392157);
#1810=COLOUR_RGB('Coating - Black Oxide',0.450980392156863,0.450980392156863,
0.450980392156863);
#1811=COLOUR_RGB('Aluminum - Anodized Glossy (Blue)',0.349019607843137,
0.584313725490196,0.854901960784314);
#1812=COLOUR_RGB('Brass - Old',0.,0.,0.);
ENDSEC;
END-ISO-10303-21;
